<?xml version="1.0" encoding="UTF-8"?>
<svg version="1.1" xmlns="http://www.w3.org/2000/svg" width="728" height="728">
<path d="M0 0 C240.24 0 480.48 0 728 0 C728 240.24 728 480.48 728 728 C487.76 728 247.52 728 0 728 C0 487.76 0 247.52 0 0 Z " fill="#FCFDFD" transform="translate(0,0)"/>
<path d="M0 0 C5.94 0 11.88 0 18 0 C18 2.97 18 5.94 18 9 C25.59 9 33.18 9 41 9 C41.15076403 17.36740352 41.27526472 24.89436943 39 33 C36.69 33 34.38 33 32 33 C32.07863281 34.03898437 32.15726562 35.07796875 32.23828125 36.1484375 C32.58950313 46.94948231 32.58950313 46.94948231 29.67675781 50.70703125 C26.94272264 53.23075603 23.95907302 55.21592217 20.80859375 57.1796875 C19.88175781 57.78039062 18.95492187 58.38109375 18 59 C18 59.66 18 60.32 18 61 C23.94 61.33 29.88 61.66 36 62 C35.67 66.29 35.34 70.58 35 75 C31.08292059 75.08085714 27.16750641 75.14043614 23.25 75.1875 C22.13882813 75.21263672 21.02765625 75.23777344 19.8828125 75.26367188 C18.81289063 75.27333984 17.74296875 75.28300781 16.640625 75.29296875 C15.65610352 75.3086792 14.67158203 75.32438965 13.65722656 75.34057617 C10.57942909 74.94609552 9.20615922 74.15156103 7 72 C7 71.34 7 70.68 7 70 C4.37098712 71.52206009 2.15634036 72.84365964 0 75 C-2.43017578 75.22705078 -2.43017578 75.22705078 -5.4453125 75.1953125 C-6.52167969 75.18886719 -7.59804688 75.18242187 -8.70703125 75.17578125 C-9.83496094 75.15902344 -10.96289062 75.14226562 -12.125 75.125 C-13.82849609 75.11146484 -13.82849609 75.11146484 -15.56640625 75.09765625 C-18.37769337 75.07403199 -21.18887262 75.0381601 -24 75 C-24 70.71 -24 66.42 -24 62 C-16.08 61.505 -16.08 61.505 -8 61 C-8 59.68 -8 58.36 -8 57 C-8.99 56.67 -9.98 56.34 -11 56 C-11.33 56.66 -11.66 57.32 -12 58 C-15.63 58 -19.26 58 -23 58 C-22.42906979 52.93299437 -21.30317003 48.61920616 -19.5 43.8125 C-17.4907855 38.48489119 -17.4907855 38.48489119 -16 33 C-17.98 33 -19.96 33 -22 33 C-22.16691405 24.95103344 -21.6293728 17.02450317 -21 9 C-13.41 9 -5.82 9 2 9 C1.34 6.03 0.68 3.06 0 0 Z " fill="#050505" transform="translate(331,217)"/>
<path d="M0 0 C5.61 0 11.22 0 17 0 C15.875 9 15.875 9 15.02734375 12.5 C14.86741943 13.1703125 14.70749512 13.840625 14.54272461 14.53125 C14.24313843 15.75328125 14.24313843 15.75328125 13.9375 17 C12.9784375 20.96 12.9784375 20.96 12 25 C20.58 25 29.16 25 38 25 C38.14735957 40.05077083 37.68996246 54.97115475 36.828125 69.99633789 C36.62349592 73.58890633 36.43235107 77.18203055 36.2421875 80.77539062 C36.11278154 83.10160727 35.98260102 85.42778099 35.8515625 87.75390625 C35.76861435 89.33396202 35.76861435 89.33396202 35.68399048 90.94593811 C35.37531124 96.16227484 34.91088798 101.33800529 34.19677734 106.51538086 C34.06524261 107.47222275 33.93370789 108.42906464 33.79818726 109.41490173 C32.81685612 112.59315019 31.61575987 113.97140833 29 116 C26.10550051 116.2906124 23.62050065 116.38186045 20.75 116.25 C20.00492187 116.23195313 19.25984375 116.21390625 18.4921875 116.1953125 C16.66090299 116.14835649 14.83028351 116.07661652 13 116 C13.54498731 112.41258531 14.39671368 110.21394588 16.48828125 107.28125 C20.47632733 100.32905748 19.96452393 92.29721295 20.1875 84.5 C20.28393987 82.02132341 20.38856151 79.54307402 20.49346924 77.06474304 C20.56280827 75.41243708 20.62950861 73.76001823 20.69354248 72.10749817 C20.9821009 64.78269114 21.50309114 57.49208248 22.125 50.1875 C22.21289795 49.13949219 22.3007959 48.09148437 22.39135742 47.01171875 C22.58983815 44.67410139 22.79411823 42.33697715 23 40 C17.72 40 12.44 40 7 40 C6.77054687 41.41410156 6.54109375 42.82820313 6.3046875 44.28515625 C4.54285246 53.97215261 1.91597753 63.47545541 -0.53564453 73.00561523 C-1.19225163 75.56384058 -1.84394407 78.12323661 -2.4921875 80.68359375 C-2.70566833 81.52554291 -2.91914917 82.36749207 -3.13909912 83.23495483 C-4.88958619 90.27085327 -6.3233235 97.35389764 -7.57492065 104.495224 C-8.37890431 108.84234101 -9.14394962 112.47469276 -12 116 C-15.35546875 116.48828125 -15.35546875 116.48828125 -19.1875 116.3125 C-20.45980469 116.26738281 -21.73210937 116.22226562 -23.04296875 116.17578125 C-24.01878906 116.11777344 -24.99460938 116.05976563 -26 116 C-25.34542192 109.41525622 -23.90970221 103.21117731 -22.25 96.8125 C-21.70341712 94.66822594 -21.15786268 92.52368949 -20.61328125 90.37890625 C-20.34080566 89.30785645 -20.06833008 88.23680664 -19.78759766 87.13330078 C-18.6269226 82.51578569 -17.52855952 77.8843718 -16.4375 73.25 C-14.74585348 66.09471843 -13.02114565 58.94855067 -11.25 51.8125 C-11.03915771 50.95624023 -10.82831543 50.09998047 -10.61108398 49.21777344 C-9.11817803 43.23635606 -9.11817803 43.23635606 -8 41 C-12.95 41 -17.9 41 -23 41 C-23.06806353 35.35072665 -23.11031666 30.5515833 -22 25 C-16.06 24.67 -10.12 24.34 -4 24 C-3.34 21.525 -2.68 19.05 -2 16.5 C-1.79117187 15.73751953 -1.58234375 14.97503906 -1.3671875 14.18945312 C-1.20476562 13.55974609 -1.04234375 12.93003906 -0.875 12.28125 C-0.70742188 11.65283203 -0.53984375 11.02441406 -0.3671875 10.37695312 C0.16121706 6.95637682 0 3.46114918 0 0 Z " fill="#080808" transform="translate(262,217)"/>
<path d="M0 0 C1.40897804 0.00333092 1.40897804 0.00333092 2.84642029 0.00672913 C3.90744461 0.00680466 4.96846893 0.00688019 6.06164551 0.00695801 C7.21579453 0.01211929 8.36994354 0.01728058 9.55906677 0.02259827 C10.73404221 0.02401321 11.90901764 0.02542816 13.11959839 0.02688599 C16.88981116 0.0325046 20.65996556 0.04506026 24.43016052 0.05775452 C26.97898779 0.06276712 29.52781599 0.06733044 32.0766449 0.07142639 C38.34033685 0.08248007 44.60399452 0.0992363 50.86766052 0.12025452 C50.97028887 11.86169755 50.85691279 23.52868404 50.06809998 35.24598694 C49.92567246 37.3748372 49.79561208 39.50423127 49.66648865 41.63392639 C49.00494572 51.98296932 49.00494572 51.98296932 47.86766052 53.12025452 C46.21027609 53.21372367 44.54891408 53.23770429 42.88890076 53.23377991 C41.82787643 53.23370438 40.76685211 53.23362885 39.67367554 53.23355103 C37.94245201 53.2258091 37.94245201 53.2258091 36.17625427 53.21791077 C35.00127884 53.21649582 33.82630341 53.21508087 32.61572266 53.21362305 C28.84550988 53.20800444 25.07535549 53.19544878 21.30516052 53.18275452 C18.75633325 53.17774191 16.20750506 53.17317859 13.65867615 53.16908264 C7.3949842 53.15802896 1.13132653 53.14127273 -5.13233948 53.12025452 C-5.25148318 42.02841735 -4.99610179 31.01176325 -4.33277893 19.93910217 C-4.19162715 17.56625331 -4.06103966 15.19296371 -3.9311676 12.81947327 C-3.84389059 11.30511486 -3.75602406 9.79079029 -3.66749573 8.27650452 C-3.62890945 7.56941345 -3.59032318 6.86232239 -3.55056763 6.13380432 C-3.18206539 0.17945442 -3.18206539 0.17945442 0 0 Z " fill="#070707" transform="translate(384.13233947753906,278.87974548339844)"/>
<path d="M0 0 C10.56 0 21.12 0 32 0 C31.48770817 14.51493504 30.90262847 29.02492503 30.18597412 43.53118896 C30.10420425 45.207532 30.02510674 46.8840077 29.9487915 48.56060791 C28.93774032 70.6197567 28.93774032 70.6197567 25.61230469 74.70458984 C23.1224257 76.70508922 20.9357039 76.28824851 17.8125 76.1875 C16.72582031 76.16042969 15.63914062 76.13335937 14.51953125 76.10546875 C13.27236328 76.05326172 13.27236328 76.05326172 12 76 C12.30679687 75.35675781 12.61359375 74.71351563 12.9296875 74.05078125 C14.30810803 70.12177968 14.70306439 66.31347689 15.125 62.1875 C15.21136719 61.39923828 15.29773438 60.61097656 15.38671875 59.79882812 C15.59751064 57.86656916 15.79962896 55.93336737 16 54 C14.02 54 12.04 54 10 54 C10.01160156 54.75023437 10.02320313 55.50046875 10.03515625 56.2734375 C10.09390318 62.93701772 9.77858797 69.38200226 9 76 C4.71 76 0.42 76 -4 76 C-3.44675826 50.608112 -1.79723058 25.33077811 0 0 Z " fill="#050405" transform="translate(451,257)"/>
<path d="M0 0 C-1.38851705 3.26336748 -2.89295258 4.91580443 -5.6875 7.0625 C-17.65103568 17.27051686 -22.77816494 33.38576073 -24.25317383 48.61376953 C-26.46320524 86.05388699 -16.4592112 128.67201257 -2 163 C-0.88440127 165.66206397 0.21656706 168.32978828 1.3125 171 C1.59150146 171.66008057 1.87050293 172.32016113 2.15795898 173.00024414 C2.83110586 174.64383551 3.42262691 176.3203692 4 178 C3.67 178.66 3.34 179.32 3 180 C-19.68796234 140.99154159 -40.12147919 97.48755389 -40.24023438 51.52929688 C-40.24991794 49.26915354 -40.28100272 47.0099301 -40.3125 44.75 C-40.40717827 31.82024926 -39.0427596 18.19035212 -30.25 7.96484375 C-22.08031165 0.20693405 -11.01291569 -3.6709719 0 0 Z " fill="#F65B08" transform="translate(225,146)"/>
<path d="M0 0 C0.33 0 0.66 0 1 0 C0.97381592 1.22178955 0.94763184 2.4435791 0.9206543 3.70239258 C0.18859573 38.15653368 0.18859573 38.15653368 6 72 C6.21350098 72.79519043 6.42700195 73.59038086 6.64697266 74.40966797 C7.9228821 79.0059441 9.42456133 83.49662342 11 88 C11.58394531 89.86591797 11.58394531 89.86591797 12.1796875 91.76953125 C19.06800498 113.6275583 30.7646223 134.10832933 42.58544922 153.65527344 C44.17328268 156.28722934 45.74438411 158.9288845 47.31640625 161.5703125 C57.65486515 178.85458754 68.56820997 194.97258952 82 210 C81.67 210.66 81.34 211.32 81 212 C80.5153125 211.50371094 80.030625 211.00742187 79.53125 210.49609375 C76.13938914 207.05857322 72.73016086 203.70620931 69.0625 200.5625 C61.76264986 194.24641873 55.34042157 187.40990196 49.3125 179.875 C46.94638678 176.93334573 44.50916884 174.06233589 42.0625 171.1875 C28.98116438 155.47369746 18.89212644 138.36000208 10 120 C9.59652344 119.25105469 9.19304687 118.50210938 8.77734375 117.73046875 C8 116 8 116 8 113 C7.34 113 6.68 113 6 113 C4.89440448 109.54212186 3.79079322 106.08361335 2.6875 102.625 C2.37876953 101.65949219 2.07003906 100.69398438 1.75195312 99.69921875 C0.82817676 96.80147815 -0.08744837 93.90129339 -1 91 C-1.27739014 90.12827148 -1.55478027 89.25654297 -1.84057617 88.35839844 C-9.75020471 62.92351451 -12.30340457 24.60680913 0 0 Z " fill="#0D0C0D" transform="translate(179,176)"/>
<path d="M0 0 C18.15 0 36.3 0 55 0 C55 13.63076923 55 13.63076923 54.5625 20.375 C54.48128906 21.68210937 54.40007812 22.98921875 54.31640625 24.3359375 C54.03670163 27.57498601 53.53447802 30.79313187 53 34 C35.18 34 17.36 34 -1 34 C-0.67 22.78 -0.34 11.56 0 0 Z " fill="#060606" transform="translate(308,296)"/>
<path d="M0 0 C3.3 0 6.6 0 10 0 C10 1.98 10 3.96 10 6 C16.27 6 22.54 6 29 6 C29 11.77790229 28.94323854 16.45847359 28 22 C24.7 22 21.4 22 18 22 C18 22.99 18 23.98 18 25 C20.97 25 23.94 25 27 25 C27 29.95 27 34.9 27 40 C25.68 40 24.36 40 23 40 C23.2165625 40.72445312 23.433125 41.44890625 23.65625 42.1953125 C23.9346875 43.16210938 24.213125 44.12890625 24.5 45.125 C24.7784375 46.07632813 25.056875 47.02765625 25.34375 48.0078125 C26 51 26 51 26 57 C22.04 57 18.08 57 14 57 C13.34 53.7 12.68 50.4 12 47 C11.34 47 10.68 47 10 47 C9.896875 47.70125 9.79375 48.4025 9.6875 49.125 C8.90640997 52.39137647 7.57941257 55.0471852 6 58 C1.71 58 -2.58 58 -7 58 C-6.09789442 53.48947211 -4.88930512 50.29874909 -2.9375 46.1875 C-2.38964844 45.02605469 -1.84179688 43.86460937 -1.27734375 42.66796875 C-0.85582031 41.78753906 -0.43429687 40.90710938 0 40 C-2.31 40 -4.62 40 -7 40 C-7.02685412 37.68756208 -7.04632841 35.3750373 -7.0625 33.0625 C-7.07410156 31.77472656 -7.08570313 30.48695313 -7.09765625 29.16015625 C-7 26 -7 26 -6 25 C-3.98035801 24.92755947 -1.95832876 24.91622812 0.0625 24.9375 C1.71958984 24.95103516 1.71958984 24.95103516 3.41015625 24.96484375 C4.26480469 24.97644531 5.11945313 24.98804688 6 25 C6 24.01 6 23.02 6 22 C2.04 22 -1.92 22 -6 22 C-4.47536437 14.50387484 -2.31993846 7.28640866 0 0 Z " fill="#050505" transform="translate(384,218)"/>
<path d="M0 0 C9.24 0 18.48 0 28 0 C28 8.6448249 27.91408456 16.8441485 27.0625 25.375 C26.28213487 33.65110336 25.66036175 41.90866859 25.24609375 50.2109375 C25 53 25 53 24 54 C22.00035018 54.08758003 19.9976389 54.10696576 17.99609375 54.09765625 C16.78115234 54.09443359 15.56621094 54.09121094 14.31445312 54.08789062 C13.03505859 54.07951172 11.75566406 54.07113281 10.4375 54.0625 C9.15423828 54.05798828 7.87097656 54.05347656 6.54882812 54.04882812 C3.36583978 54.03699545 0.18294238 54.02051068 -3 54 C-2.73669697 48.07740643 -2.47004893 42.15497586 -2.20043945 36.23266602 C-2.10937374 34.22228976 -2.01918668 32.21187348 -1.92993164 30.20141602 C-1.80071138 27.29432114 -1.66822234 24.38738984 -1.53515625 21.48046875 C-1.49656998 20.59667038 -1.4579837 19.71287201 -1.41822815 18.80229187 C-1.12531079 12.49875604 -0.57273792 6.30011717 0 0 Z " fill="#080808" transform="translate(415,221)"/>
<path d="M0 0 C14.79259119 11.10085266 24.27626161 26.09741147 32.9375 42.1875 C33.3288916 42.91146973 33.7202832 43.63543945 34.12353516 44.38134766 C35.02519363 46.11646491 35.83498487 47.8987865 36.625 49.6875 C36.13 50.6775 36.13 50.6775 35.625 51.6875 C34.30727638 50.08762144 32.99598863 48.48244034 31.6875 46.875 C30.59115234 45.53501953 30.59115234 45.53501953 29.47265625 44.16796875 C27.625 41.6875 27.625 41.6875 26.625 38.6875 C25.30559516 37.99367504 23.96965971 37.33101572 22.625 36.6875 C21.26325242 35.46851628 19.93210666 34.21489969 18.625 32.9375 C11.61430227 26.65994713 4.44935228 22.39494279 -5.125 22.0625 C-15.03767037 22.62826478 -20.1161283 26.77723101 -26.90234375 33.8046875 C-30.30800915 37.7752737 -33.10139397 41.97674912 -35.87890625 46.4140625 C-36.37261719 47.16429687 -36.86632812 47.91453125 -37.375 48.6875 C-37.705 48.6875 -38.035 48.6875 -38.375 48.6875 C-37.87637646 32.50716625 -34.85491819 15.26539014 -23.375 3.0625 C-16.74861182 -2.97515425 -7.87027943 -4.88548651 0 0 Z " fill="#080808" transform="translate(243.375,155.3125)"/>
<path d="M0 0 C4.29 0 8.58 0 13 0 C13 4.62 13 9.24 13 14 C15.908125 12.7625 15.908125 12.7625 18.875 11.5 C24.75 9 24.75 9 27 9 C27.02763357 10.35404497 27.04667422 11.70826555 27.0625 13.0625 C27.07410156 13.81660156 27.08570313 14.57070313 27.09765625 15.34765625 C26.97851072 18.58364877 26.45794854 21.79436022 26 25 C19.07 27.475 19.07 27.475 12 30 C11.67 33.3 11.34 36.6 11 40 C12.77174819 39.91276622 14.54247377 39.80458345 16.3125 39.6875 C17.29863281 39.62949219 18.28476562 39.57148438 19.30078125 39.51171875 C22.37096041 39.1920644 22.37096041 39.1920644 25 36 C24.67 42.27 24.34 48.54 24 55 C15.09 55 6.18 55 -3 55 C-3 47.00112812 -2.80906641 39.353474 -2.0625 31.4375 C-1.12829512 20.96517858 -0.47063301 10.50254707 0 0 Z " fill="#040505" transform="translate(484,278)"/>
<path d="M0 0 C1.93166016 0.01740234 1.93166016 0.01740234 3.90234375 0.03515625 C5.19269531 0.04417969 6.48304688 0.05320313 7.8125 0.0625 C8.81152344 0.07410156 9.81054688 0.08570313 10.83984375 0.09765625 C10.83984375 4.05765625 10.83984375 8.01765625 10.83984375 12.09765625 C12.42796875 11.60265625 14.01609375 11.10765625 15.65234375 10.59765625 C18.5956286 9.68026877 20.74108703 9.09765625 23.83984375 9.09765625 C23.83984375 14.37765625 23.83984375 19.65765625 23.83984375 25.09765625 C18.859375 26.61132812 18.859375 26.61132812 13.87890625 28.125 C10.96057557 28.97341899 10.96057557 28.97341899 8.83984375 30.09765625 C8.83984375 33.06765625 8.83984375 36.03765625 8.83984375 39.09765625 C12.13984375 39.09765625 15.43984375 39.09765625 18.83984375 39.09765625 C19.49984375 37.77765625 20.15984375 36.45765625 20.83984375 35.09765625 C21.16984375 35.09765625 21.49984375 35.09765625 21.83984375 35.09765625 C21.86741566 36.76422506 21.88649178 38.43093476 21.90234375 40.09765625 C21.91394531 41.02578125 21.92554688 41.95390625 21.9375 42.91015625 C21.82275381 46.65547192 21.30461096 50.3795186 20.83984375 54.09765625 C12.25984375 54.09765625 3.67984375 54.09765625 -5.16015625 54.09765625 C-5.20446331 43.10317605 -5.08239595 32.1279347 -4.7878418 21.13745117 C-4.72135266 18.61061508 -4.6624076 16.08366395 -4.60351562 13.55664062 C-4.56165354 11.94660267 -4.51935339 10.33657604 -4.4765625 8.7265625 C-4.45985001 7.97258682 -4.44313751 7.21861115 -4.42591858 6.44178772 C-4.24325016 0.1311264 -4.24325016 0.1311264 0 0 Z " fill="#080808" transform="translate(491.16015625,216.90234375)"/>
<path d="M0 0 C0.33 0 0.66 0 1 0 C1.0093457 0.72775635 1.01869141 1.4555127 1.02832031 2.20532227 C1.70168688 44.26762711 13.59751791 81.07742176 31.93359375 118.69140625 C35.15733715 125.37109375 35.15733715 125.37109375 36 128 C35.67 128.66 35.34 129.32 35 130 C34.34 130 33.68 130 33 130 C33 131.65 33 133.3 33 135 C32.34 135.33 31.68 135.66 31 136 C22.5738777 121.00943874 14.65632924 106.00315697 8.69458008 89.84912109 C8.09240559 88.24600351 7.44470534 86.66012771 6.7890625 85.078125 C2.77202618 75.31861394 0.27196615 65.28712523 -2 55 C-2.25209229 53.87634033 -2.25209229 53.87634033 -2.50927734 52.72998047 C-4.56711065 43.24688752 -5.28939545 33.9518493 -5.375 24.25 C-5.38893799 23.22551758 -5.40287598 22.20103516 -5.41723633 21.14550781 C-5.38183351 15.60427677 -4.9572403 11.84182921 -2 7 C-1.26473103 4.95792148 -1.26473103 4.95792148 -0.8125 3.125 C-0.4103125 1.578125 -0.4103125 1.578125 0 0 Z " fill="#DBD5D2" transform="translate(184,184)"/>
<path d="M0 0 C5.28 0 10.56 0 16 0 C15.34188891 3.94866657 14.80004223 6.92888197 13.5 10.5625 C12.41619288 13.69232349 11.52903322 16.71999401 11 20 C12.98 20 14.96 20 17 20 C17 16.04 17 12.08 17 8 C20.3 8 23.6 8 27 8 C27.33 17.24 27.66 26.48 28 36 C24.7 36 21.4 36 18 36 C17.505 35.505 17.505 35.505 17 35 C15.5373656 35.09329561 14.07879001 35.25176342 12.625 35.4375 C7.06697024 36.06398312 1.58687448 36.09559291 -4 36 C-4.4938996 26.97261287 -3.82547452 19.93662379 -0.875 11.3515625 C0.33680736 7.28722403 0.33680736 7.28722403 0 0 Z " fill="#090909" transform="translate(456,217)"/>
<path d="M0 0 C6.6 0 13.2 0 20 0 C21.98 5.61 23.96 11.22 26 17 C26.33 11.39 26.66 5.78 27 0 C27.99 0 28.98 0 30 0 C30 10.56 30 21.12 30 32 C27 31 27 31 26.10864258 29.32592773 C25.87298584 28.61895752 25.6373291 27.9119873 25.39453125 27.18359375 C25.15839111 26.49579834 24.92225098 25.80800293 24.67895508 25.09936523 C24.3930249 24.22094971 24.10709473 23.34253418 23.8125 22.4375 C22.884375 19.653125 21.95625 16.86875 21 14 C20.67 19.94 20.34 25.88 20 32 C16.85411056 32.02683697 13.70844729 32.04675902 10.5625 32.0625 C9.66466797 32.07087891 8.76683594 32.07925781 7.84179688 32.08789062 C6.56079102 32.09272461 6.56079102 32.09272461 5.25390625 32.09765625 C4.46314697 32.10289307 3.6723877 32.10812988 2.85766602 32.11352539 C1 32 1 32 0 31 C-0.08790975 28.70848583 -0.10694038 26.41427476 -0.09765625 24.12109375 C-0.0962413 23.4344313 -0.09482635 22.74776886 -0.09336853 22.04029846 C-0.08775479 19.83932199 -0.07520007 17.63844591 -0.0625 15.4375 C-0.05748676 13.94856917 -0.05292355 12.45963676 -0.04882812 10.97070312 C-0.03863021 7.31373195 -0.01905779 3.65697883 0 0 Z " fill="#E4E3E3" transform="translate(456,356)"/>
<path d="M0 0 C0.33 0 0.66 0 1 0 C1.04898438 1.05960938 1.09796875 2.11921875 1.1484375 3.2109375 C1.22346709 4.59898497 1.29901485 5.98700451 1.375 7.375 C1.4059375 8.07367188 1.436875 8.77234375 1.46875 9.4921875 C1.59499498 13.70185827 1.59499498 13.70185827 4 17 C4.98890815 25.74932295 3.59805999 35.25337268 3 44 C11.58 44 20.16 44 29 44 C29 41.36 29 38.72 29 36 C29.33 36 29.66 36 30 36 C30 39.3 30 42.6 30 46 C26.57437665 46.78402678 23.49741586 47.09372613 19.98828125 46.9921875 C19.06595703 46.97542969 18.14363281 46.95867187 17.19335938 46.94140625 C15.26087924 46.89686095 13.32856102 46.8446844 11.39648438 46.78515625 C10.47802734 46.77097656 9.55957031 46.75679688 8.61328125 46.7421875 C7.77579346 46.7201123 6.93830566 46.69803711 6.07543945 46.67529297 C5.04809692 46.83602295 5.04809692 46.83602295 4 47 C3.34 47.99 2.68 48.98 2 50 C6.29 50 10.58 50 15 50 C15.65984723 53.95908338 16.12125692 56.99704338 16.0625 60.875 C16.05347656 61.65617187 16.04445313 62.43734375 16.03515625 63.2421875 C16.02355469 63.82226562 16.01195312 64.40234375 16 65 C15.34 65 14.68 65 14 65 C14 60.38 14 55.76 14 51 C9.71 51 5.42 51 1 51 C1.05220703 52.43085938 1.05220703 52.43085938 1.10546875 53.890625 C1.50608908 71.32386911 -0.42105832 88.65983695 -2 106 C6.91 106 15.82 106 25 106 C24.34 106.99 23.68 107.98 23 109 C20.20988262 109.2520106 17.65865548 109.32574573 14.875 109.25 C13.77285156 109.24226563 13.77285156 109.24226563 12.6484375 109.234375 C7.69995058 109.164678 2.89948913 108.68881707 -2 108 C-2.33 107.01 -2.66 106.02 -3 105 C-3.53109375 105.49242187 -4.0621875 105.98484375 -4.609375 106.4921875 C-7.71457465 108.45069578 -9.60128253 108.26925162 -13.25 108.125 C-21.23157728 107.94016347 -29.03284477 108.44090139 -37 109 C-36.67 100.75 -36.34 92.5 -36 84 C-35.67 84 -35.34 84 -35 84 C-34.97283176 86.54173977 -34.95308031 89.08318415 -34.9375 91.625 C-34.92493164 92.69427734 -34.92493164 92.69427734 -34.91210938 93.78515625 C-34.90888672 94.48769531 -34.90566406 95.19023437 -34.90234375 95.9140625 C-34.89710693 96.5529541 -34.89187012 97.1918457 -34.88647461 97.85009766 C-35.03105756 100.58815676 -35.54923873 103.29543235 -36 106 C-31.71 106 -27.42 106 -23 106 C-23.020625 104.5975 -23.04125 103.195 -23.0625 101.75 C-23.07102622 95.79869856 -22.56963751 89.92016129 -22 84 C-20.02 84 -18.04 84 -16 84 C-15.68156243 99.28500325 -15.68156243 99.28500325 -20 106 C-18.06164034 105.93989582 -16.12415509 105.85108283 -14.1875 105.75 C-13.10855469 105.70359375 -12.02960938 105.6571875 -10.91796875 105.609375 C-7.97567546 105.24579737 -7.97567546 105.24579737 -6.17578125 103.390625 C-3.05475746 97.04488892 -3.63771777 88.7810075 -3.28125 81.85546875 C-3.21844849 80.69050369 -3.15564697 79.52553864 -3.09094238 78.32527161 C-2.89103634 74.61283056 -2.6951387 70.90019447 -2.5 67.1875 C-2.3045883 63.48553389 -2.10822388 59.78362951 -1.90905762 56.0818634 C-1.78546362 53.78355222 -1.66400268 51.48512497 -1.54504395 49.18656921 C-1.48828491 48.12879776 -1.43152588 47.07102631 -1.37304688 45.98120117 C-1.32498901 45.06521652 -1.27693115 44.14923187 -1.22741699 43.20549011 C-0.91456463 38.79577064 -0.43988638 34.39886376 0 30 C-10.56 30 -21.12 30 -32 30 C-32 27.03 -32 24.06 -32 21 C-31.67 21 -31.34 21 -31 21 C-31 22.65 -31 24.3 -31 26 C-29.98679687 25.855625 -28.97359375 25.71125 -27.9296875 25.5625 C-26.57815455 25.37478709 -25.22659036 25.18729904 -23.875 25 C-22.87726563 24.85691406 -22.87726563 24.85691406 -21.859375 24.7109375 C-17.87784458 24.16445293 -14.01844734 23.80457399 -10 24 C-9.67 24.33 -9.34 24.66 -9 25 C-7.31816052 25.23287008 -5.6287584 25.41264166 -3.9375 25.5625 C-3.01839844 25.64628906 -2.09929687 25.73007813 -1.15234375 25.81640625 C-0.08693359 25.90728516 -0.08693359 25.90728516 1 26 C0.75443359 24.31390625 0.75443359 24.31390625 0.50390625 22.59375 C-0.0849631 17.88279524 -0.11269251 13.24126159 -0.0625 8.5 C-0.05798828 7.67757812 -0.05347656 6.85515625 -0.04882812 6.0078125 C-0.03718489 4.00517604 -0.01925556 2.00257773 0 0 Z " fill="#A4A4A6" transform="translate(483,227)"/>
<path d="M0 0 C3.63 0 7.26 0 11 0 C11 1.98 11 3.96 11 6 C20.9 5.505 20.9 5.505 31 5 C30.90912109 7.27197266 30.90912109 7.27197266 30.81640625 9.58984375 C30.77644531 10.59063965 30.73648438 11.59143555 30.6953125 12.62255859 C30.60603957 14.85077164 30.51618653 17.07896151 30.42578125 19.30712891 C30.18571078 25.24470506 29.95546463 31.18235018 29.74609375 37.12109375 C29.70476318 38.25361572 29.66343262 39.3861377 29.62084961 40.55297852 C29.54130618 42.739539 29.46520478 44.92622786 29.39282227 47.11303711 C29.35600342 48.10440674 29.31918457 49.09577637 29.28125 50.1171875 C29.25095703 50.98972168 29.22066406 51.86225586 29.18945312 52.76123047 C29 55 29 55 28 58 C37.24 57.67 46.48 57.34 56 57 C54 64 54 64 53 66 C53.99 66.495 53.99 66.495 55 67 C55.16631339 79.03000164 54.6524986 90.9895138 54 103 C53.01 103 52.02 103 51 103 C51 105.97 51 108.94 51 112 C50.01 112.495 50.01 112.495 49 113 C49.12158747 108.95125469 49.24588392 104.90260093 49.37231445 100.85400391 C49.43506823 98.82849073 49.49589331 96.80291809 49.55664062 94.77734375 C49.9001313 83.838487 50.45317838 72.93643235 51 62 C33.51 62.33 16.02 62.66 -2 63 C-2.33 67.29 -2.66 71.58 -3 76 C-4.81248985 72.3750203 -5.31888915 70.62740416 -5.625 66.75 C-5.73714844 65.41195312 -5.73714844 65.41195312 -5.8515625 64.046875 C-5.92503906 63.03367187 -5.92503906 63.03367187 -6 62 C-6.99 62.495 -6.99 62.495 -8 63 C-7.67 61.68 -7.34 60.36 -7 59 C-0.565 58.505 -0.565 58.505 6 58 C7.32 54.7 8.64 51.4 10 48 C10.66 48 11.32 48 12 48 C12.66 51.3 13.32 54.6 14 58 C17.96 58 21.92 58 26 58 C25.7834375 57.02417969 25.566875 56.04835938 25.34375 55.04296875 C25.0653125 53.77066406 24.786875 52.49835938 24.5 51.1875 C24.2215625 49.92292969 23.943125 48.65835938 23.65625 47.35546875 C23 44 23 44 23 41 C24.32 41 25.64 41 27 41 C27 36.05 27 31.1 27 26 C24.03 26 21.06 26 18 26 C18 25.01 18 24.02 18 23 C21.3 23 24.6 23 28 23 C28.33 17.72 28.66 12.44 29 7 C22.73 7 16.46 7 10 7 C10 5.02 10 3.04 10 1 C6.7 1 3.4 1 0 1 C0 0.67 0 0.34 0 0 Z " fill="#AAAAAB" transform="translate(384,217)"/>
<path d="M0 0 C0.33 0.99 0.66 1.98 1 3 C4.63 3 8.26 3 12 3 C12.33 2.01 12.66 1.02 13 0 C14.32 0.66 15.64 1.32 17 2 C17 3.32 17 4.64 17 6 C16 7 16 7 12.40234375 7.09765625 C10.91403133 7.0909822 9.42573568 7.07902183 7.9375 7.0625 C7.17888672 7.05798828 6.42027344 7.05347656 5.63867188 7.04882812 C3.75908129 7.0370068 1.87953101 7.01907078 0 7 C0 11.29 0 15.58 0 20 C3.91831616 19.94008691 7.83278527 19.8530846 11.75 19.75 C12.86117188 19.73582031 13.97234375 19.72164063 15.1171875 19.70703125 C16.18710937 19.67480469 17.25703125 19.64257812 18.359375 19.609375 C19.34389648 19.58842773 20.32841797 19.56748047 21.34277344 19.54589844 C24.66058807 18.86428933 25.72990475 17.42715346 28 15 C28.99 15 29.98 15 31 15 C31.60553711 15.64743164 32.21107422 16.29486328 32.83496094 16.96191406 C35.56548088 19.53232233 36.94219575 19.53068502 40.640625 19.609375 C42.24550781 19.65771484 42.24550781 19.65771484 43.8828125 19.70703125 C45.54957031 19.72830078 45.54957031 19.72830078 47.25 19.75 C48.37664062 19.77964844 49.50328125 19.80929687 50.6640625 19.83984375 C53.44278021 19.91048912 56.22066148 19.96321277 59 20 C59 16.7 59 13.4 59 10 C59.33 10 59.66 10 60 10 C60.25127207 11.5590978 60.47504458 13.12264016 60.6875 14.6875 C60.81511719 15.55761719 60.94273437 16.42773438 61.07421875 17.32421875 C61 20 61 20 59.53881836 22.26708984 C57.724195 25.48982408 57.50942083 27.72436022 57.3046875 31.40234375 C57.22863281 32.62244141 57.15257812 33.84253906 57.07421875 35.09960938 C57.00847656 36.36611328 56.94273437 37.63261719 56.875 38.9375 C56.72897896 41.44675637 56.58062263 43.95587817 56.4296875 46.46484375 C56.37022949 47.574646 56.31077148 48.68444824 56.24951172 49.82788086 C56.00755176 52.90399218 55.5072716 55.95637043 55 59 C36.52 59 18.04 59 -1 59 C-1 56.36 -1 53.72 -1 51 C-0.67 51 -0.34 51 0 51 C0 53.31 0 55.62 0 58 C17.82 58 35.64 58 54 58 C54.33 50.74 54.66 43.48 55 36 C55.6328125 27.703125 55.6328125 27.703125 56 24 C55.33014572 24.00666183 54.66029144 24.01332367 53.97013855 24.02018738 C47.01130971 24.0864514 40.05257019 24.13176348 33.09350586 24.16479492 C30.49483603 24.17990063 27.89619177 24.20038634 25.29760742 24.22631836 C21.56683042 24.26262243 17.83638987 24.27970858 14.10546875 24.29296875 C12.35691841 24.31619453 12.35691841 24.31619453 10.57304382 24.33988953 C9.49214981 24.34011612 8.4112558 24.34034271 7.29760742 24.34057617 C6.34496506 24.34723801 5.39232269 24.35389984 4.41081238 24.36076355 C2 24 2 24 0.18940735 22.70478821 C-1.82617894 19.81583033 -1.34765431 16.51238398 -1.25 13.125 C-1.24484375 12.41730469 -1.2396875 11.70960938 -1.234375 10.98046875 C-1.17821165 7.21050363 -0.89125023 3.66562593 0 0 Z " fill="#A6A6A6" transform="translate(307,272)"/>
<path d="M0 0 C0.33 0 0.66 0 1 0 C1.04898438 1.05960938 1.09796875 2.11921875 1.1484375 3.2109375 C1.22346709 4.59898497 1.29901485 5.98700451 1.375 7.375 C1.4059375 8.07367188 1.436875 8.77234375 1.46875 9.4921875 C1.59499498 13.70185827 1.59499498 13.70185827 4 17 C4.98890815 25.74932295 3.59805999 35.25337268 3 44 C11.58 44 20.16 44 29 44 C29 41.36 29 38.72 29 36 C29.33 36 29.66 36 30 36 C30 39.3 30 42.6 30 46 C26.57437665 46.78402678 23.49741586 47.09372613 19.98828125 46.9921875 C19.06595703 46.97542969 18.14363281 46.95867187 17.19335938 46.94140625 C15.26087924 46.89686095 13.32856102 46.8446844 11.39648438 46.78515625 C10.47802734 46.77097656 9.55957031 46.75679688 8.61328125 46.7421875 C7.77579346 46.7201123 6.93830566 46.69803711 6.07543945 46.67529297 C5.04809692 46.83602295 5.04809692 46.83602295 4 47 C3.34 47.99 2.68 48.98 2 50 C6.29 50 10.58 50 15 50 C15.65984723 53.95908338 16.12125692 56.99704338 16.0625 60.875 C16.05347656 61.65617187 16.04445313 62.43734375 16.03515625 63.2421875 C16.02355469 63.82226562 16.01195312 64.40234375 16 65 C15.34 65 14.68 65 14 65 C14 60.38 14 55.76 14 51 C9.38 51.33 4.76 51.66 0 52 C0 44.74 0 37.48 0 30 C-10.56 30 -21.12 30 -32 30 C-32 27.03 -32 24.06 -32 21 C-31.67 21 -31.34 21 -31 21 C-31 22.65 -31 24.3 -31 26 C-29.98679687 25.855625 -28.97359375 25.71125 -27.9296875 25.5625 C-26.57815455 25.37478709 -25.22659036 25.18729904 -23.875 25 C-22.87726563 24.85691406 -22.87726563 24.85691406 -21.859375 24.7109375 C-17.87784458 24.16445293 -14.01844734 23.80457399 -10 24 C-9.67 24.33 -9.34 24.66 -9 25 C-7.31816052 25.23287008 -5.6287584 25.41264166 -3.9375 25.5625 C-3.01839844 25.64628906 -2.09929687 25.73007813 -1.15234375 25.81640625 C-0.08693359 25.90728516 -0.08693359 25.90728516 1 26 C0.75443359 24.31390625 0.75443359 24.31390625 0.50390625 22.59375 C-0.0849631 17.88279524 -0.11269251 13.24126159 -0.0625 8.5 C-0.05798828 7.67757812 -0.05347656 6.85515625 -0.04882812 6.0078125 C-0.03718489 4.00517604 -0.01925556 2.00257773 0 0 Z " fill="#ACABAD" transform="translate(483,227)"/>
<path d="M0 0 C0.99 0 1.98 0 3 0 C4.98 5.61 6.96 11.22 9 17 C9.33 11.39 9.66 5.78 10 0 C10.99 0 11.98 0 13 0 C13 10.56 13 21.12 13 32 C10 31 10 31 9.10864258 29.32592773 C8.87298584 28.61895752 8.6373291 27.9119873 8.39453125 27.18359375 C8.15839111 26.49579834 7.92225098 25.80800293 7.67895508 25.09936523 C7.3930249 24.22094971 7.10709473 23.34253418 6.8125 22.4375 C5.884375 19.653125 4.95625 16.86875 4 14 C3.67 19.94 3.34 25.88 3 32 C2.01 32 1.02 32 0 32 C0 21.44 0 10.88 0 0 Z " fill="#2D2B2B" transform="translate(473,356)"/>
<path d="M0 0 C3.63 0 7.26 0 11 0 C11 1.98 11 3.96 11 6 C20.9 5.505 20.9 5.505 31 5 C30.90912109 7.27197266 30.90912109 7.27197266 30.81640625 9.58984375 C30.77644531 10.59063965 30.73648437 11.59143555 30.6953125 12.62255859 C30.60603957 14.85077164 30.51618653 17.07896151 30.42578125 19.30712891 C30.18571078 25.24470506 29.95546463 31.18235018 29.74609375 37.12109375 C29.70476318 38.25361572 29.66343262 39.3861377 29.62084961 40.55297852 C29.54130618 42.739539 29.46520478 44.92622786 29.39282227 47.11303711 C29.35600342 48.10440674 29.31918457 49.09577637 29.28125 50.1171875 C29.23581055 51.42598877 29.23581055 51.42598877 29.18945312 52.76123047 C29 55 29 55 28 58 C36.58 58 45.16 58 54 58 C54 58.33 54 58.66 54 59 C40.8 59 27.6 59 14 59 C14 58.67 14 58.34 14 58 C17.96 58 21.92 58 26 58 C25.7834375 57.02417969 25.566875 56.04835938 25.34375 55.04296875 C25.0653125 53.77066406 24.786875 52.49835938 24.5 51.1875 C24.08234375 49.29064453 24.08234375 49.29064453 23.65625 47.35546875 C23 44 23 44 23 41 C24.32 41 25.64 41 27 41 C27 36.05 27 31.1 27 26 C24.03 26 21.06 26 18 26 C18 25.01 18 24.02 18 23 C21.3 23 24.6 23 28 23 C28.33 17.72 28.66 12.44 29 7 C22.73 7 16.46 7 10 7 C10 5.02 10 3.04 10 1 C6.7 1 3.4 1 0 1 C0 0.67 0 0.34 0 0 Z " fill="#747273" transform="translate(384,217)"/>
<path d="M0 0 C3.1359157 1.77984405 3.84102736 2.52308207 5 6 C5.48289318 10.29854094 5.72907776 13.80431248 3.4375 17.5625 C0.04481874 19.56331202 -2.12714161 19.55326548 -6 19 C-8.4375 17.6875 -8.4375 17.6875 -10 15 C-10.72617223 10.06652061 -11.0009467 5.65541186 -8.375 1.3125 C-5.2932166 -0.39059083 -3.47515996 -0.50679416 0 0 Z " fill="#F9F8F6" transform="translate(222,677)"/>
<path d="M0 0 C9.625 -0.25 9.625 -0.25 13 2 C13.1875 4.9375 13.1875 4.9375 13 8 C12.86742176 10.95003206 12.86742176 10.95003206 13.6875 13.5 C14 16 14 16 12.875 17.64453125 C9.19683421 20.3035386 4.34369863 19.15330701 0 19 C0 12.73 0 6.46 0 0 Z " fill="#B2B5B3" transform="translate(328,677)"/>
<path d="M0 0 C1.32 0.33 2.64 0.66 4 1 C5.00488281 2.76586914 5.00488281 2.76586914 5.703125 5.03515625 C5.93676758 5.76355713 6.17041016 6.49195801 6.41113281 7.24243164 C6.68795898 8.1730542 6.96478516 9.10367676 7.25 10.0625 C8.1575 13.011875 9.065 15.96125 10 19 C10.33 12.73 10.66 6.46 11 0 C11.66 0 12.32 0 13 0 C13 10.56 13 21.12 13 32 C10 31 10 31 9.10864258 29.23413086 C8.75515747 28.11083374 8.75515747 28.11083374 8.39453125 26.96484375 C8.15839111 26.23644287 7.92225098 25.50804199 7.67895508 24.75756836 C7.3930249 23.8269458 7.10709473 22.89632324 6.8125 21.9375 C5.4203125 17.5134375 5.4203125 17.5134375 4 13 C3.67 19.27 3.34 25.54 3 32 C2.01 31.67 1.02 31.34 0 31 C0 20.77 0 10.54 0 0 Z " fill="#2F2E2D" transform="translate(347,356)"/>
<path d="M0 0 C2.5 0.375 2.5 0.375 4.3125 1.5625 C5.86678206 3.93482525 5.72537188 5.59541345 5.5 8.375 C4.84 8.375 4.18 8.375 3.5 8.375 C3.17 7.715 2.84 7.055 2.5 6.375 C0.85 6.375 -0.8 6.375 -2.5 6.375 C-4.64650403 9.87268983 -4.79840526 12.74851737 -4.8125 16.8125 C-4.82925781 17.92496094 -4.84601563 19.03742188 -4.86328125 20.18359375 C-4.46756708 23.65992148 -3.50367286 25.54659635 -1.5 28.375 C0.46614267 28.22842916 0.46614267 28.22842916 2.5 27.375 C3.6375213 25.29465706 3.6375213 25.29465706 4.25 22.8125 C4.61351562 21.57306641 4.61351562 21.57306641 4.984375 20.30859375 C5.15453125 19.67050781 5.3246875 19.03242188 5.5 18.375 C3.52 18.375 1.54 18.375 -0.5 18.375 C-0.5 17.055 -0.5 15.735 -0.5 14.375 C2.14 14.375 4.78 14.375 7.5 14.375 C8.02702163 21.40195501 8.27818893 27.14847062 3.92578125 32.984375 C2.5 34.375 2.5 34.375 0 35.375 C-4.06220505 33.75011798 -5.67623797 30.21892921 -7.5 26.375 C-10.00076918 18.62261555 -8.97423245 10.58081546 -5.5 3.375 C-3.57574796 1.12398818 -2.98908727 0.44836309 0 0 Z " fill="#343433" transform="translate(443.5,354.625)"/>
<path d="M0 0 C7.92 0 7.92 0 12 3 C13.72584734 4.72584734 13.2533507 6.96209367 13.3125 9.3125 C13.25857565 12.77264553 13.20781738 14.61147186 11.5625 17.6875 C9 19 9 19 0 19 C0 12.73 0 6.46 0 0 Z " fill="#FAF9F8" transform="translate(304,677)"/>
<path d="M0 0 C0.9583374 0.00523682 1.9166748 0.01047363 2.90405273 0.01586914 C4.45576172 0.02070313 4.45576172 0.02070313 6.03881836 0.02563477 C7.12743164 0.03401367 8.21604492 0.04239258 9.33764648 0.05102539 C10.97636719 0.05779297 10.97636719 0.05779297 12.64819336 0.06469727 C15.35723144 0.07652713 18.06616248 0.09300996 20.77514648 0.11352539 C20.87280273 6.26586914 20.87280273 6.26586914 20.77514648 8.11352539 C19.77514648 9.11352539 19.77514648 9.11352539 17.55029297 9.22705078 C16.59195557 9.22181396 15.63361816 9.21657715 14.64624023 9.21118164 C13.09453125 9.20634766 13.09453125 9.20634766 11.51147461 9.20141602 C10.42286133 9.19303711 9.33424805 9.1846582 8.21264648 9.17602539 C6.57392578 9.16925781 6.57392578 9.16925781 4.90209961 9.16235352 C2.19306153 9.15052366 -0.51586951 9.13404082 -3.22485352 9.11352539 C-3.32250977 2.96118164 -3.32250977 2.96118164 -3.22485352 1.11352539 C-2.22485352 0.11352539 -2.22485352 0.11352539 0 0 Z " fill="#C6C7C6" transform="translate(326.224853515625,307.886474609375)"/>
<path d="M0 0 C3.63 0 7.26 0 11 0 C11.33 1.32 11.66 2.64 12 4 C11 5 11 5 8.93359375 5.09765625 C5.46679688 5.04882812 5.46679688 5.04882812 2 5 C2 7.97 2 10.94 2 14 C4.97 14 7.94 14 11 14 C11 15.65 11 17.3 11 19 C8.36 19 5.72 19 3 19 C3 21.97 3 24.94 3 28 C5.64 28 8.28 28 11 28 C11 29.65 11 31.3 11 33 C7.37 33 3.74 33 0 33 C0 22.11 0 11.22 0 0 Z " fill="#3A3A39" transform="translate(511,355)"/>
<path d="M0 0 C3.96 0 7.92 0 12 0 C12 1.32 12 2.64 12 4 C9.03 4 6.06 4 3 4 C3 6.97 3 9.94 3 13 C5.97 13 8.94 13 12 13 C12 14.65 12 16.3 12 18 C9.03 18 6.06 18 3 18 C3 21.3 3 24.6 3 28 C5.97 28 8.94 28 12 28 C12 29.32 12 30.64 12 32 C10.18757948 32.02687279 8.37504767 32.04633715 6.5625 32.0625 C5.55316406 32.07410156 4.54382813 32.08570313 3.50390625 32.09765625 C1 32 1 32 0 31 C-0.08790975 28.70848583 -0.10694038 26.41427476 -0.09765625 24.12109375 C-0.0962413 23.4344313 -0.09482635 22.74776886 -0.09336853 22.04029846 C-0.08775479 19.83932199 -0.07520007 17.63844591 -0.0625 15.4375 C-0.05748676 13.94856917 -0.05292355 12.45963676 -0.04882812 10.97070312 C-0.03778093 7.31376925 -0.02050713 3.65689442 0 0 Z " fill="#4B4A4A" transform="translate(456,356)"/>
<path d="M0 0 C3.96 0 7.92 0 12 0 C12 1.32 12 2.64 12 4 C9.03 4 6.06 4 3 4 C3 6.97 3 9.94 3 13 C5.64 13 8.28 13 11 13 C11.5625 14.9375 11.5625 14.9375 12 17 C11 18 11 18 9.15234375 18.09765625 C7.1015625 18.06510417 5.05078125 18.03255208 3 18 C3 21.3 3 24.6 3 28 C5.97 28 8.94 28 12 28 C12 29.32 12 30.64 12 32 C10.18757948 32.02687279 8.37504767 32.04633715 6.5625 32.0625 C5.55316406 32.07410156 4.54382813 32.08570313 3.50390625 32.09765625 C1 32 1 32 0 31 C-0.08790975 28.70848583 -0.10694038 26.41427476 -0.09765625 24.12109375 C-0.0962413 23.4344313 -0.09482635 22.74776886 -0.09336853 22.04029846 C-0.08775479 19.83932199 -0.07520007 17.63844591 -0.0625 15.4375 C-0.05748676 13.94856917 -0.05292355 12.45963676 -0.04882812 10.97070312 C-0.03778093 7.31376925 -0.02050713 3.65689442 0 0 Z " fill="#343332" transform="translate(310,356)"/>
<path d="M0 0 C1.32 0 2.64 0 4 0 C4.84026396 1.76755526 5.67198722 3.53917263 6.5 5.3125 C6.9640625 6.29863281 7.428125 7.28476562 7.90625 8.30078125 C9 11 9 11 9 14 C9.66 14 10.32 14 11 14 C11.0825 13.360625 11.165 12.72125 11.25 12.0625 C12.29520372 7.79458483 14.14091826 3.96892333 16 0 C16.99 0 17.98 0 19 0 C19 6.27 19 12.54 19 19 C18.01 19 17.02 19 16 19 C15.67 16.03 15.34 13.06 15 10 C13.68 12.97 12.36 15.94 11 19 C10.01 19 9.02 19 8 19 C6.68 15.04 5.36 11.08 4 7 C3.67 10.96 3.34 14.92 3 19 C2.01 19 1.02 19 0 19 C0 12.73 0 6.46 0 0 Z " fill="#C0C1BF" transform="translate(431,677)"/>
<path d="M0 0 C1.12591553 0.00523682 2.25183105 0.01047363 3.41186523 0.01586914 C4.62680664 0.0190918 5.84174805 0.02231445 7.09350586 0.02563477 C8.37290039 0.03401367 9.65229492 0.04239258 10.97045898 0.05102539 C12.2537207 0.05553711 13.53698242 0.06004883 14.85913086 0.06469727 C18.04211921 0.07652994 21.22501661 0.09301471 24.40795898 0.11352539 C24.40795898 2.42352539 24.40795898 4.73352539 24.40795898 7.11352539 C15.16795898 7.11352539 5.92795898 7.11352539 -3.59204102 7.11352539 C-3.59204102 0.15732307 -3.59204102 0.15732307 0 0 Z " fill="#BAB9BA" transform="translate(397.592041015625,292.886474609375)"/>
<path d="M0 0 C11.22 0 22.44 0 34 0 C34 1.98 34 3.96 34 6 C29.4583875 6.05823729 24.9168716 6.09367675 20.375 6.125 C18.44720703 6.15013672 18.44720703 6.15013672 16.48046875 6.17578125 C15.23652344 6.18222656 13.99257813 6.18867188 12.7109375 6.1953125 C11.56931152 6.20578613 10.42768555 6.21625977 9.25146484 6.22705078 C5.86433183 5.99052625 3.15994958 5.2095701 0 4 C0 2.68 0 1.36 0 0 Z " fill="#BDBDBD" transform="translate(323,240)"/>
<path d="M0 0 C3.96 0 7.92 0 12 0 C11.67 1.32 11.34 2.64 11 4 C8.36 4 5.72 4 3 4 C3 6.97 3 9.94 3 13 C5.64 13 8.28 13 11 13 C11 14.32 11 15.64 11 17 C7.04 17.495 7.04 17.495 3 18 C3 20.97 3 23.94 3 27 C5.97 27.33 8.94 27.66 12 28 C12 29.32 12 30.64 12 32 C8.04 32 4.08 32 0 32 C0 21.44 0 10.88 0 0 Z " fill="#363534" transform="translate(382,356)"/>
<path d="M0 0 C0.33 0 0.66 0 1 0 C1.16081055 0.58378418 1.32162109 1.16756836 1.48730469 1.76904297 C2.23567808 4.47268863 2.99279456 7.1738152 3.75 9.875 C4.00265625 10.7928125 4.2553125 11.710625 4.515625 12.65625 C6.29107536 18.95909878 8.45810298 24.96818789 11 31 C11.84658147 33.03687041 12.69157852 35.07435775 13.53320312 37.11328125 C14.06661244 38.40469327 14.60597131 39.69365947 15.15039062 40.98046875 C15.82581634 42.63075323 16.42033266 44.31369501 17 46 C16.67 46.66 16.34 47.32 16 48 C-0.65699405 19.3608631 -0.65699405 19.3608631 -5 7 C-4.01 6.67 -3.02 6.34 -2 6 C-0.77479736 2.99152582 -0.77479736 2.99152582 0 0 Z " fill="#F5641A" transform="translate(212,278)"/>
<path d="M0 0 C2.9375 0.875 2.9375 0.875 4.9375 3.875 C4.9375 5.195 4.9375 6.515 4.9375 7.875 C3.9475 7.545 2.9575 7.215 1.9375 6.875 C1.9375 6.215 1.9375 5.555 1.9375 4.875 C-0.49967258 5.14534634 -0.49967258 5.14534634 -3.0625 5.875 C-5.50753999 9.54255999 -5.33081152 11.44978137 -5.3125 15.8125 C-5.31765625 17.03839844 -5.3228125 18.26429688 -5.328125 19.52734375 C-5.08333557 22.61241052 -4.68978656 24.29846294 -3.0625 26.875 C-1.4125 26.875 0.2375 26.875 1.9375 26.875 C2.2675 26.215 2.5975 25.555 2.9375 24.875 C3.9275 25.205 4.9175 25.535 5.9375 25.875 C5.54606977 28.14529534 5.05008722 29.70908198 3.75 31.625 C0.95936013 33.54957922 -0.76320555 33.48099286 -4.0625 32.875 C-8.45000182 27.53884914 -9.2322073 23.32716019 -9.3125 16.5625 C-9.33828125 15.26699219 -9.3640625 13.97148437 -9.390625 12.63671875 C-8.97867616 7.91401951 -7.37299526 4.80954062 -4.75 0.9375 C-3.0625 -0.125 -3.0625 -0.125 0 0 Z " fill="#252525" transform="translate(500.0625,355.125)"/>
<path d="M0 0 C0.66 0 1.32 0 2 0 C2 3.63 2 7.26 2 11 C2.66 11 3.32 11 4 11 C4.4021875 9.6696875 4.4021875 9.6696875 4.8125 8.3125 C5.93113051 5.19210962 7.03803137 2.66827733 9 0 C9.99 0 10.98 0 12 0 C11.31011387 3.45754695 9.91191556 6.24628025 8.3125 9.375 C6.3168291 13.60540432 6.3168291 13.60540432 6.4375 18.1875 C6.953125 19.115625 7.46875 20.04375 8 21 C8.71496783 22.3924467 9.42296078 23.78849044 10.125 25.1875 C10.47820312 25.84105469 10.83140625 26.49460937 11.1953125 27.16796875 C12 29 12 29 12 32 C11.01 32 10.02 32 9 32 C8.16180842 30.37750059 7.3295884 28.75191503 6.5 27.125 C6.0359375 26.22007812 5.571875 25.31515625 5.09375 24.3828125 C4 22 4 22 4 20 C3.34 20 2.68 20 2 20 C2 23.96 2 27.92 2 32 C1.34 32 0.68 32 0 32 C0 21.44 0 10.88 0 0 Z " fill="#0C0B0B" transform="translate(293,356)"/>
<path d="M0 0 C0.33 0 0.66 0 1 0 C1.02716824 2.54173977 1.04691969 5.08318415 1.0625 7.625 C1.07087891 8.33785156 1.07925781 9.05070312 1.08789062 9.78515625 C1.09111328 10.48769531 1.09433594 11.19023437 1.09765625 11.9140625 C1.10289307 12.5529541 1.10812988 13.1918457 1.11352539 13.85009766 C0.96894244 16.58815676 0.45076127 19.29543235 0 22 C4.29 22 8.58 22 13 22 C12.979375 20.5975 12.95875 19.195 12.9375 17.75 C12.92897378 11.79869856 13.43036249 5.92016129 14 0 C15.98 0 17.96 0 20 0 C20.35141791 16.86805984 20.35141791 16.86805984 16.91796875 22.65625 C12.2405577 25.93329562 4.30674244 24.95720369 -1 25 C-0.67 16.75 -0.34 8.5 0 0 Z " fill="#AEACAE" transform="translate(447,311)"/>
<path d="M0 0 C0.99 0 1.98 0 3 0 C3.99 3.63 4.98 7.26 6 11 C6.433125 9.370625 6.86625 7.74125 7.3125 6.0625 C8.05078125 3.28515625 8.05078125 3.28515625 9 1 C9.99 0.67 10.98 0.34 12 0 C15.42857143 8.42857143 15.42857143 8.42857143 15 13 C15.66 13 16.32 13 17 13 C17.144375 11.783125 17.28875 10.56625 17.4375 9.3125 C17.82780953 6.17329623 18.32351856 3.0924866 19 0 C19.99 0 20.98 0 22 0 C21.79503906 0.95261719 21.59007812 1.90523437 21.37890625 2.88671875 C21.10949219 4.14097656 20.84007812 5.39523437 20.5625 6.6875 C20.29566406 7.92886719 20.02882812 9.17023437 19.75390625 10.44921875 C19.14944864 13.29612015 18.56235316 16.14455626 18 19 C17.01 19 16.02 19 15 19 C14.49166409 17.75336669 13.99368855 16.50250613 13.5 15.25 C13.2215625 14.55390625 12.943125 13.8578125 12.65625 13.140625 C12 11 12 11 12 7 C11.34 7 10.68 7 10 7 C9.87625 7.86625 9.7525 8.7325 9.625 9.625 C9.01941879 12.89513853 8.11693965 15.87256899 7 19 C6.01 19 5.02 19 4 19 C3.32713788 16.58490559 2.66153988 14.16819644 2 11.75 C1.71382812 10.72712891 1.71382812 10.72712891 1.421875 9.68359375 C0.50042956 6.29399088 0 3.54221024 0 0 Z " fill="#BFBFBC" transform="translate(230,677)"/>
<path d="M0 0 C9.24324324 -0.48648649 9.24324324 -0.48648649 12.625 1.6875 C14.27819009 4.46786515 14.65121427 5.82533042 14 9 C12.4375 10.8125 12.4375 10.8125 10 12 C6.25 12.1875 6.25 12.1875 3 12 C3 14.31 3 16.62 3 19 C2.01 19 1.02 19 0 19 C0 12.73 0 6.46 0 0 Z " fill="#C8C9C8" transform="translate(195,677)"/>
<path d="M0 0 C9.72727273 0 9.72727273 0 12 2 C12.875 4.875 12.875 4.875 13 8 C12.649375 8.639375 12.29875 9.27875 11.9375 9.9375 C10.44156704 13.2285525 11.86504223 15.7212331 13 19 C12.01 18.67 11.02 18.34 10 18 C8.8125 14.4375 8.8125 14.4375 8 11 C6.02 11 4.04 11 2 11 C2 13.64 2 16.28 2 19 C1.34 19 0.68 19 0 19 C0 12.73 0 6.46 0 0 Z " fill="#B7B8B5" transform="translate(271,677)"/>
<path d="M0 0 C0.66 0.99 1.32 1.98 2 3 C2.99 3.33 3.98 3.66 5 4 C4.81824219 4.53625 4.63648438 5.0725 4.44921875 5.625 C2.69791232 11.08548362 1.39170099 16.56233622 0.3125 22.1875 C0.18125732 22.85201172 0.05001465 23.51652344 -0.08520508 24.20117188 C-0.88395495 28.51688547 -1.11938311 32.61693427 -1 37 C-1.66 37 -2.32 37 -3 37 C-3.97040422 31.06975197 -3.89316269 25.93609666 -3 20 C-6.55654259 23.55654259 -5.36537195 34.2096583 -5.5625 38.9375 C-5.60568359 39.90751953 -5.64886719 40.87753906 -5.69335938 41.87695312 C-5.79862093 44.25118601 -5.90075707 46.62550921 -6 49 C-6.33 49 -6.66 49 -7 49 C-7.4018443 31.50431746 -7.35759074 16.20910853 0 0 Z " fill="#CBB1A6" transform="translate(207,168)"/>
<path d="M0 0 C0.33 0 0.66 0 1 0 C1.3503316 3.39951402 1.53840296 6.61499131 1 10 C-1.9375 12.4375 -1.9375 12.4375 -5 14 C-5.33 14.99 -5.66 15.98 -6 17 C-4.02 17 -2.04 17 0 17 C-0.33 18.32 -0.66 19.64 -1 21 C-1.33 20.34 -1.66 19.68 -2 19 C-2.66 19.99 -3.32 20.98 -4 22 C-6.6015625 22.29296875 -6.6015625 22.29296875 -9.625 22.1875 C-11.12933594 22.14689453 -11.12933594 22.14689453 -12.6640625 22.10546875 C-13.43492187 22.07066406 -14.20578125 22.03585937 -15 22 C-15 18.7 -15 15.4 -15 12 C-13.06532058 11.16013916 -11.12714871 10.32831973 -9.1875 9.5 C-8.10855469 9.0359375 -7.02960938 8.571875 -5.91796875 8.09375 C-3 7 -3 7 0 7 C0 4.69 0 2.38 0 0 Z " fill="#C3C3C3" transform="translate(510,296)"/>
<path d="M0 0 C0.33 0 0.66 0 1 0 C1.25127207 1.5590978 1.47504458 3.12264016 1.6875 4.6875 C1.81511719 5.55761719 1.94273437 6.42773438 2.07421875 7.32421875 C2 10 2 10 0.53881836 12.26708984 C-1.275805 15.48982408 -1.49057917 17.72436022 -1.6953125 21.40234375 C-1.77136719 22.62244141 -1.84742188 23.84253906 -1.92578125 25.09960938 C-1.99152344 26.36611328 -2.05726563 27.63261719 -2.125 28.9375 C-2.27102104 31.44675637 -2.41937737 33.95587817 -2.5703125 36.46484375 C-2.62977051 37.574646 -2.68922852 38.68444824 -2.75048828 39.82788086 C-2.99244824 42.90399218 -3.4927284 45.95637043 -4 49 C-22.48 49 -40.96 49 -60 49 C-60 46.36 -60 43.72 -60 41 C-59.67 41 -59.34 41 -59 41 C-59 43.31 -59 45.62 -59 48 C-41.18 48 -23.36 48 -5 48 C-4.67 40.74 -4.34 33.48 -4 26 C-3.3671875 17.140625 -3.3671875 17.140625 -3 13 C-4.08539063 13.01160156 -5.17078125 13.02320313 -6.2890625 13.03515625 C-7.73437327 13.04454138 -9.17968591 13.05364081 -10.625 13.0625 C-11.69427734 13.07506836 -11.69427734 13.07506836 -12.78515625 13.08789062 C-16.97344438 13.10710296 -20.8728462 12.8267327 -25 12 C-25 11.67 -25 11.34 -25 11 C-17.08 10.67 -9.16 10.34 -1 10 C-0.67 6.7 -0.34 3.4 0 0 Z " fill="#A8A9A9" transform="translate(366,282)"/>
<path d="M0 0 C2.6875 -0.3125 2.6875 -0.3125 5 0 C4.67 0.66 4.34 1.32 4 2 C3.01 2.33 2.02 2.66 1 3 C0.34 4.32 -0.32 5.64 -1 7 C2.63 7.33 6.26 7.66 10 8 C10 8.33 10 8.66 10 9 C7.36 9 4.72 9 2 9 C2 10.32 2 11.64 2 13 C3.98 13 5.96 13 8 13 C7.56179109 17.55737263 7.14958831 20.57653445 4 24 C2.1875 23.8125 2.1875 23.8125 0 23 C-2.89639375 19.1498301 -3.40841983 16.26789547 -3.375 11.5 C-3.38273437 10.3965625 -3.39046875 9.293125 -3.3984375 8.15625 C-2.95938195 4.67824135 -2.14468843 2.75600104 0 0 Z " fill="#D3D3D2" transform="translate(441,360)"/>
<path d="M0 0 C0.99 0 1.98 0 3 0 C2.49396008 2.16874252 2.00016187 3.99967627 1 6 C1.66 6.33 2.32 6.66 3 7 C3.16631339 19.03000164 2.6524986 30.9895138 2 43 C1.01 43 0.02 43 -1 43 C-1 45.97 -1 48.94 -1 52 C-1.99 52.495 -1.99 52.495 -3 53 C-2.58359535 35.58040547 -1.93586304 18.32879341 0 1 C0 0.67 0 0.34 0 0 Z " fill="#D9D9D9" transform="translate(436,277)"/>
<path d="M0 0 C9.24 0 18.48 0 28 0 C28 1.65 28 3.3 28 5 C18.76 5 9.52 5 0 5 C0 3.35 0 1.7 0 0 Z " fill="#AEAFB0" transform="translate(393,312)"/>
<path d="M0 0 C0.33 0 0.66 0 1 0 C1 1.65 1 3.3 1 5 C2.29292969 4.98839844 3.58585937 4.97679687 4.91796875 4.96484375 C14.68539035 4.90466711 24.26974351 5.07330891 34 6 C34 9.63 34 13.26 34 17 C33.67 17 33.34 17 33 17 C33 14.36 33 11.72 33 9 C22.11 9 11.22 9 0 9 C0 6.03 0 3.06 0 0 Z " fill="#B7B5B5" transform="translate(451,248)"/>
<path d="M0 0 C0.33 0.99 0.66 1.98 1 3 C1.66 3.33 2.32 3.66 3 4 C2.34 5.32 1.68 6.64 1 8 C1.99 8.33 2.98 8.66 4 9 C4 9.99 4 10.98 4 12 C10.93 12.495 10.93 12.495 18 13 C18 13.99 18 14.98 18 16 C17.15695312 16.02578125 16.31390625 16.0515625 15.4453125 16.078125 C14.34960938 16.13484375 13.25390625 16.1915625 12.125 16.25 C11.03445313 16.29640625 9.94390625 16.3428125 8.8203125 16.390625 C5.8667935 16.68846128 5.8667935 16.68846128 4.6171875 19.046875 C4.41351563 19.69140625 4.20984375 20.3359375 4 21 C4 20.34 4 19.68 4 19 C2.68 18.34 1.36 17.68 0 17 C-0.33 19.31 -0.66 21.62 -1 24 C-2.65 24 -4.3 24 -6 24 C-7.76615118 28.70973649 -8.48594831 33.03083364 -9 38 C-9.33 38 -9.66 38 -10 38 C-10.10251672 32.87416389 -10.03590199 28.05002222 -9 23 C-6.69 23 -4.38 23 -2 23 C-1.0765501 15.34855794 -0.51405694 7.68897931 0 0 Z " fill="#E3E2E2" transform="translate(372,227)"/>
<path d="M0 0 C0.99 0 1.98 0 3 0 C4.0063655 2.43504509 5.00526413 4.87270864 6 7.3125 C6.28617187 8.00279297 6.57234375 8.69308594 6.8671875 9.40429688 C8.08910744 12.41545674 9 14.71886984 9 18 C8.34 18 7.68 18 7 18 C6.67 16.68 6.34 15.36 6 14 C1.545 14.495 1.545 14.495 -3 15 C-3.33 15.99 -3.66 16.98 -4 18 C-4.66 18 -5.32 18 -6 18 C-5.50356293 12.29097373 -4.20216829 4.20216829 0 0 Z " fill="#B8B9B8" transform="translate(460,678)"/>
<path d="M0 0 C0.99 0 1.98 0 3 0 C3 6.27 3 12.54 3 19 C-1 18 -1 18 -2.921875 15.49609375 C-3.52515625 14.48675781 -4.1284375 13.47742188 -4.75 12.4375 C-5.67039062 10.91962891 -5.67039062 10.91962891 -6.609375 9.37109375 C-7.06828125 8.58863281 -7.5271875 7.80617188 -8 7 C-8.33 10.96 -8.66 14.92 -9 19 C-9.66 19 -10.32 19 -11 19 C-11 13.06 -11 7.12 -11 1 C-10.01 1 -9.02 1 -8 1 C-6.17578125 3.40625 -6.17578125 3.40625 -4.3125 6.5 C-3.68988281 7.5209375 -3.06726563 8.541875 -2.42578125 9.59375 C-1.95527344 10.3878125 -1.48476563 11.181875 -1 12 C-0.67 8.04 -0.34 4.08 0 0 Z " fill="#B9BAB9" transform="translate(386,677)"/>
<path d="M0 0 C3.96 0 7.92 0 12 0 C12 1.32 12 2.64 12 4 C10.35 4 8.7 4 7 4 C7 13.24 7 22.48 7 32 C6.01 32 5.02 32 4 32 C4 22.76 4 13.52 4 4 C2.68 4 1.36 4 0 4 C0 2.68 0 1.36 0 0 Z " fill="#111010" transform="translate(365,356)"/>
<path d="M0 0 C1.98 0 3.96 0 6 0 C6.05429278 2.70860665 6.09381211 5.41610901 6.125 8.125 C6.15013672 9.26582031 6.15013672 9.26582031 6.17578125 10.4296875 C6.21546246 15.03270731 5.75907577 18.66464004 4 23 C2.68 23 1.36 23 0 23 C0 15.41 0 7.82 0 0 Z " fill="#ACABAB" transform="translate(425,237)"/>
<path d="M0 0 C0.66 0.66 1.32 1.32 2 2 C1.67 2.66 1.34 3.32 1 4 C2.19238281 3.91621094 3.38476562 3.83242188 4.61328125 3.74609375 C6.17966708 3.64291864 7.74607451 3.54007111 9.3125 3.4375 C10.09818359 3.38142578 10.88386719 3.32535156 11.69335938 3.26757812 C12.8293457 3.19506836 12.8293457 3.19506836 13.98828125 3.12109375 C14.68477783 3.0739624 15.38127441 3.02683105 16.09887695 2.97827148 C18 3 18 3 21 4 C18.77623126 6.22376874 13.69788449 5.45424461 10.6875 5.62109375 C9.800625 5.74613281 8.91375 5.87117188 8 6 C7.67 6.66 7.34 7.32 7 8 C7.99 7.67 8.98 7.34 10 7 C12.00875442 7.27571139 14.01178687 7.60235737 16 8 C14 10 14 10 11.57421875 10.23046875 C10.62160156 10.21628906 9.66898437 10.20210938 8.6875 10.1875 C7.74261719 10.18105469 6.79773438 10.17460937 5.82421875 10.16796875 C3.11539085 10.0068628 0.65040398 9.56018002 -2 9 C-3.76841153 8.79088856 -5.53947363 8.60298246 -7.3125 8.4375 C-8.19550781 8.35371094 -9.07851563 8.26992188 -9.98828125 8.18359375 C-10.98408203 8.09271484 -10.98408203 8.09271484 -12 8 C-12 6.35 -12 4.7 -12 3 C-10.7625 3.2475 -9.525 3.495 -8.25 3.75 C-6.07896977 4.09572221 -6.07896977 4.09572221 -4 4 C-1.47409152 2.22845348 -1.47409152 2.22845348 0 0 Z " fill="#DDDEDD" transform="translate(403,339)"/>
<path d="M0 0 C0.99 0 1.98 0 3 0 C3 9.24 3 18.48 3 28 C5.31 28 7.62 28 10 28 C10 29.32 10 30.64 10 32 C6.7 32 3.4 32 0 32 C0 21.44 0 10.88 0 0 Z " fill="#242323" transform="translate(413,356)"/>
<path d="M0 0 C0.99 0 1.98 0 3 0 C3 9.24 3 18.48 3 28 C5.31 28 7.62 28 10 28 C10 29.32 10 30.64 10 32 C8.52093108 32.02689216 7.04172517 32.04634621 5.5625 32.0625 C4.73878906 32.07410156 3.91507812 32.08570313 3.06640625 32.09765625 C1 32 1 32 0 31 C-0.08790975 28.70848583 -0.10694038 26.41427476 -0.09765625 24.12109375 C-0.0962413 23.4344313 -0.09482635 22.74776886 -0.09336853 22.04029846 C-0.08775479 19.83932199 -0.07520007 17.63844591 -0.0625 15.4375 C-0.05748676 13.94856917 -0.05292355 12.45963676 -0.04882812 10.97070312 C-0.03778093 7.31376925 -0.02050713 3.65689442 0 0 Z " fill="#333332" transform="translate(398,356)"/>
<path d="M0 0 C0.99 0 1.98 0 3 0 C3 9.24 3 18.48 3 28 C5.31 28 7.62 28 10 28 C10 29.32 10 30.64 10 32 C8.52093108 32.02689216 7.04172517 32.04634621 5.5625 32.0625 C4.73878906 32.07410156 3.91507812 32.08570313 3.06640625 32.09765625 C1 32 1 32 0 31 C-0.08790975 28.70848583 -0.10694038 26.41427476 -0.09765625 24.12109375 C-0.0962413 23.4344313 -0.09482635 22.74776886 -0.09336853 22.04029846 C-0.08775479 19.83932199 -0.07520007 17.63844591 -0.0625 15.4375 C-0.05748676 13.94856917 -0.05292355 12.45963676 -0.04882812 10.97070312 C-0.03778093 7.31376925 -0.02050713 3.65689442 0 0 Z " fill="#262525" transform="translate(270,356)"/>
<path d="M0 0 C3.96 0 7.92 0 12 0 C12 0.66 12 1.32 12 2 C9.03 2 6.06 2 3 2 C3 3.98 3 5.96 3 8 C5.64 8 8.28 8 11 8 C11 8.99 11 9.98 11 11 C8.36 11 5.72 11 3 11 C3 12.98 3 14.96 3 17 C6.3 17 9.6 17 13 17 C13 17.66 13 18.32 13 19 C8.71 19 4.42 19 0 19 C0 12.73 0 6.46 0 0 Z " fill="#CDCCCA" transform="translate(288,677)"/>
<path d="M0 0 C9.24 0 18.48 0 28 0 C28 0.33 28 0.66 28 1 C26.02 1 24.04 1 22 1 C21.67 2.32 21.34 3.64 21 5 C10.77 5 0.54 5 -10 5 C-10 4.67 -10 4.34 -10 4 C-5.545 3.505 -5.545 3.505 -1 3 C-0.67 2.01 -0.34 1.02 0 0 Z " fill="#DCDDDE" transform="translate(470,343)"/>
<path d="M0 0 C0.33 0 0.66 0 1 0 C1.04898437 1.05960938 1.09796875 2.11921875 1.1484375 3.2109375 C1.22346709 4.59898497 1.29901485 5.98700451 1.375 7.375 C1.4059375 8.07367188 1.436875 8.77234375 1.46875 9.4921875 C1.59499498 13.70185827 1.59499498 13.70185827 4 17 C4.98890815 25.74932295 3.59805999 35.25337268 3 44 C11.58 44 20.16 44 29 44 C29 44.33 29 44.66 29 45 C20.09 45 11.18 45 2 45 C2 39.06 2 33.12 2 27 C-0.9390625 27.0309375 -0.9390625 27.0309375 -3.9375 27.0625 C-9.38487672 27.06845993 -14.60607275 26.73137997 -20 26 C-16.48077851 24.06862682 -14.0379986 23.73080009 -10 24 C-9.67 24.33 -9.34 24.66 -9 25 C-7.31816052 25.23287008 -5.6287584 25.41264166 -3.9375 25.5625 C-3.01839844 25.64628906 -2.09929687 25.73007813 -1.15234375 25.81640625 C-0.08693359 25.90728516 -0.08693359 25.90728516 1 26 C0.75443359 24.31390625 0.75443359 24.31390625 0.50390625 22.59375 C-0.0849631 17.88279524 -0.11269251 13.24126159 -0.0625 8.5 C-0.05798828 7.67757812 -0.05347656 6.85515625 -0.04882812 6.0078125 C-0.03718489 4.00517604 -0.01925556 2.00257773 0 0 Z " fill="#706D6E" transform="translate(483,227)"/>
<path d="M0 0 C3.63 0 7.26 0 11 0 C11 1.98 11 3.96 11 6 C20.9 5.505 20.9 5.505 31 5 C30.88639367 9.10477592 30.75963401 13.20840664 30.625 17.3125 C30.5940625 18.47974609 30.563125 19.64699219 30.53125 20.84960938 C30.49257813 21.96787109 30.45390625 23.08613281 30.4140625 24.23828125 C30.3826416 25.26993408 30.3512207 26.30158691 30.31884766 27.36450195 C30 30 30 30 28 33 C28 30.69 28 28.38 28 26 C24.7 26 21.4 26 18 26 C18 25.01 18 24.02 18 23 C21.3 23 24.6 23 28 23 C28.33 17.72 28.66 12.44 29 7 C22.73 7 16.46 7 10 7 C10 5.02 10 3.04 10 1 C6.7 1 3.4 1 0 1 C0 0.67 0 0.34 0 0 Z " fill="#8C8B8A" transform="translate(384,217)"/>
<path d="M0 0 C4.29 0 8.58 0 13 0 C13 0.66 13 1.32 13 2 C9.37 2 5.74 2 2 2 C2 3.98 2 5.96 2 8 C4.97 8 7.94 8 11 8 C11 8.99 11 9.98 11 11 C8.36 11 5.72 11 3 11 C3 12.98 3 14.96 3 17 C6.3 17 9.6 17 13 17 C13 17.66 13 18.32 13 19 C8.71 19 4.42 19 0 19 C0 12.73 0 6.46 0 0 Z " fill="#BCBEBB" transform="translate(255,677)"/>
<path d="M0 0 C9.625 -0.25 9.625 -0.25 13 2 C13 3.98 13 5.96 13 8 C7.06 8.495 7.06 8.495 1 9 C1 12.3 1 15.6 1 19 C0.67 19 0.34 19 0 19 C0 12.73 0 6.46 0 0 Z " fill="#C4C4C3" transform="translate(328,677)"/>
<path d="M0 0 C0.33 0 0.66 0 1 0 C0.93941406 1.24910156 0.87882812 2.49820312 0.81640625 3.78515625 C0.17023116 17.18841379 -0.42750905 30.59340317 -1 44 C-1.33 44 -1.66 44 -2 44 C-2.103125 42.9275 -2.20625 41.855 -2.3125 40.75 C-2.99985145 37.00081029 -3.80101475 35.89866238 -6 33 C-5.75 30.9375 -5.75 30.9375 -5 29 C-3.48483941 24.45451822 -3.68076145 19.7162168 -3.5703125 14.95507812 C-3.34756032 9.39091426 -2.19079639 5.12552632 0 0 Z " fill="#D9D9D8" transform="translate(283,275)"/>
<path d="M0 0 C0.99 0 1.98 0 3 0 C3.13572155 2.39774745 3.23436868 4.78775245 3.3125 7.1875 C3.3753418 8.19780273 3.3753418 8.19780273 3.43945312 9.22851562 C3.53530057 13.158261 3.12602541 14.83547877 0.7109375 17.98828125 C-2 20 -2 20 -5.6875 20 C-9 19 -9 19 -11 16 C-11.14221065 13.39754502 -11.18802932 10.90882316 -11.125 8.3125 C-11.11597656 7.61060547 -11.10695313 6.90871094 -11.09765625 6.18554688 C-11.07413704 4.45688475 -11.03826713 2.72839855 -11 1 C-10.34 1 -9.68 1 -9 1 C-8.93941406 1.99902344 -8.87882812 2.99804688 -8.81640625 4.02734375 C-8.73261719 5.31769531 -8.64882813 6.60804688 -8.5625 7.9375 C-8.48128906 9.22527344 -8.40007812 10.51304687 -8.31640625 11.83984375 C-8.35080812 14.86023957 -8.35080812 14.86023957 -7 16 C-5.02 16 -3.04 16 -1 16 C-0.67 10.72 -0.34 5.44 0 0 Z " fill="#BCBEBD" transform="translate(483,677)"/>
<path d="M0 0 C7.92 0 7.92 0 12 3 C13.72584734 4.72584734 13.2533507 6.96209367 13.3125 9.3125 C13.25857565 12.77264553 13.20781738 14.61147186 11.5625 17.6875 C9 19 9 19 0 19 C0 12.73 0 6.46 0 0 Z M2 2 C2 6.95 2 11.9 2 17 C7.47181373 17.47058824 7.47181373 17.47058824 9.875 16 C11.68527863 12.78172688 11.64144893 9.54222351 11 6 C9.47722993 3.39279682 9.47722993 3.39279682 7 2 C5.35 2 3.7 2 2 2 Z " fill="#B7B8B7" transform="translate(304,677)"/>
<path d="M0 0 C5.94 0 11.88 0 18 0 C18 3 18 3 16.64453125 4.640625 C11.76724827 8.92514651 11.76724827 8.92514651 8.4375 9.25 C4.99915498 7.48674614 2.36136442 5.05922469 0 2 C0 1.34 0 0.68 0 0 Z " fill="#B3B2B1" transform="translate(328,260)"/>
<path d="M0 0 C3.1359157 1.77984405 3.84102736 2.52308207 5 6 C5.48289318 10.29854094 5.72907776 13.80431248 3.4375 17.5625 C0.04481874 19.56331202 -2.12714161 19.55326548 -6 19 C-8.4375 17.6875 -8.4375 17.6875 -10 15 C-10.72617223 10.06652061 -11.0009467 5.65541186 -8.375 1.3125 C-5.2932166 -0.39059083 -3.47515996 -0.50679416 0 0 Z M-6.8125 3.5 C-8.59376995 7.250042 -8.39487671 9.85379452 -8 14 C-7.12129086 16.212981 -7.12129086 16.212981 -5 17 C-1.38537214 16.92421045 -1.38537214 16.92421045 2 16 C3.59537236 12.80925528 3.37735822 9.47169561 3 6 C1.99963019 3.43991037 1.99963019 3.43991037 0 2 C-3.10335909 1.37932818 -4.35775889 1.46849011 -6.8125 3.5 Z " fill="#B6B7B5" transform="translate(222,677)"/>
<path d="M0 0 C3.96 0 7.92 0 12 0 C12 0.99 12 1.98 12 3 C8.7 3 5.4 3 2 3 C2 4.65 2 6.3 2 8 C4.64 8 7.28 8 10 8 C10 8.66 10 9.32 10 10 C7.36 10 4.72 10 2 10 C2 12.31 2 14.62 2 17 C5.3 17 8.6 17 12 17 C12 17.66 12 18.32 12 19 C8.04 19 4.08 19 0 19 C0 12.73 0 6.46 0 0 Z " fill="#BDBEBD" transform="translate(394,677)"/>
<path d="M0 0 C1.335163 4.00548901 0.68075022 6.51836716 -1.0625 10.3125 C-1.371875 10.869375 -1.68125 11.42625 -2 12 C0.64 12 3.28 12 6 12 C6 12.33 6 12.66 6 13 C0.06 13 -5.88 13 -12 13 C-12 11.68 -12 10.36 -12 9 C-10.02328648 7.22331107 -8.16819586 5.74918047 -6 4.25 C-5.42765625 3.83878906 -4.8553125 3.42757813 -4.265625 3.00390625 C-2.85208615 1.99087007 -1.4270849 0.9938627 0 0 Z " fill="#C7C6C6" transform="translate(361,266)"/>
<path d="M0 0 C0.66 0.33 1.32 0.66 2 1 C-0.31 3.31 -2.62 5.62 -5 8 C-3.35 8 -1.7 8 0 8 C-0.39832031 8.50789062 -0.79664063 9.01578125 -1.20703125 9.5390625 C-4.28566175 13.53903498 -6.91595614 17.36879143 -9 22 C-10.32 21.67 -11.64 21.34 -13 21 C-12.82400249 12.72811695 -7.65879043 7.59793129 -2.0625 1.9375 C-1.381875 1.298125 -0.70125 0.65875 0 0 Z " fill="#ECE3E1" transform="translate(221,150)"/>
<path d="M0 0 C0.99 0 1.98 0 3 0 C3 10.56 3 21.12 3 32 C2.01 32 1.02 32 0 32 C0 21.44 0 10.88 0 0 Z " fill="#373737" transform="translate(285,356)"/>
<path d="M0 0 C0.99 0 1.98 0 3 0 C3 10.56 3 21.12 3 32 C2.01 32 1.02 32 0 32 C0 21.44 0 10.88 0 0 Z " fill="#323130" transform="translate(339,356)"/>
<path d="M0 0 C4.95 0 9.9 0 15 0 C15 0.99 15 1.98 15 3 C13.02 3 11.04 3 9 3 C9 8.28 9 13.56 9 19 C8.01 19 7.02 19 6 19 C6 13.72 6 8.44 6 3 C4.02 3 2.04 3 0 3 C0 2.01 0 1.02 0 0 Z " fill="#C0C1C1" transform="translate(407,677)"/>
<path d="M0 0 C0.66 0 1.32 0 2 0 C1.39638921 8.78412551 0.2194515 16.13647676 -4 24 C-4.33 24 -4.66 24 -5 24 C-5 16.74 -5 9.48 -5 2 C-4.34 2 -3.68 2 -3 2 C-2.67 2.99 -2.34 3.98 -2 5 C-1.34 5 -0.68 5 0 5 C0 3.35 0 1.7 0 0 Z " fill="#EEEDEC" transform="translate(184,173)"/>
<path d="M0 0 C0.99 0 1.98 0 3 0 C3.33 1.65 3.66 3.3 4 5 C3.01 4.67 2.02 4.34 1 4 C1 5.98 1 7.96 1 10 C1.99 10 2.98 10 4 10 C3.67 17.26 3.34 24.52 3 32 C2.01 32 1.02 32 0 32 C0 21.44 0 10.88 0 0 Z " fill="#343332" transform="translate(473,356)"/>
<path d="M0 0 C0.66 0 1.32 0 2 0 C5.42857143 8.42857143 5.42857143 8.42857143 5 13 C5.66 13 6.32 13 7 13 C7.144375 11.783125 7.28875 10.56625 7.4375 9.3125 C7.82780953 6.17329623 8.32351856 3.0924866 9 0 C9.99 0 10.98 0 12 0 C11.79503906 0.95261719 11.59007812 1.90523437 11.37890625 2.88671875 C11.10949219 4.14097656 10.84007812 5.39523437 10.5625 6.6875 C10.29566406 7.92886719 10.02882812 9.17023437 9.75390625 10.44921875 C9.14944864 13.29612015 8.56235316 16.14455626 8 19 C7.01 19 6.02 19 5 19 C4.15919981 16.58570231 3.32718598 14.16896007 2.5 11.75 C2.14228516 10.72712891 2.14228516 10.72712891 1.77734375 9.68359375 C0.60578713 6.23586997 0 3.68297096 0 0 Z " fill="#BABBB8" transform="translate(240,677)"/>
<path d="M0 0 C0.33 0 0.66 0 1 0 C2.62707524 14.81800662 2.64446412 29.31377965 0 44 C-0.33 44 -0.66 44 -1 44 C-1.20638953 13.87347956 -1.20638953 13.87347956 0 0 Z " fill="#959190" transform="translate(482,267)"/>
<path d="M0 0 C3.75376152 1.25125384 4.24073289 2.5652404 6 6 C6 6.66 6 7.32 6 8 C7.98180213 6.20694093 9.20358221 4.6498386 10.5625 2.3125 C11.2740625 1.1678125 11.2740625 1.1678125 12 0 C12.66 0 13.32 0 14 0 C12.22073579 5.59197324 12.22073579 5.59197324 10.96875 7.90625 C9.88113008 10.25691241 9.60194217 12.17798869 9.375 14.75 C9.30023438 15.54921875 9.22546875 16.3484375 9.1484375 17.171875 C9.09945313 17.77515625 9.05046875 18.3784375 9 19 C8.01 19 7.02 19 6 19 C5.90203125 18.443125 5.8040625 17.88625 5.703125 17.3125 C4.71748334 12.28232877 3.28854305 8.11616353 0.8046875 3.62890625 C0 2 0 2 0 0 Z " fill="#B5B8B5" transform="translate(344,677)"/>
<path d="M0 0 C0.33 0 0.66 0 1 0 C1.50763865 2.68625454 2.00627197 5.37368383 2.5 8.0625 C2.64308594 8.81466797 2.78617188 9.56683594 2.93359375 10.34179688 C3.776431 14.97740175 4.15015262 19.2889615 4 24 C3.01 23.67 2.02 23.34 1 23 C1 22.34 1 21.68 1 21 C0.34 21 -0.32 21 -1 21 C-1.89472578 16.59314169 -2.0065661 12.72566728 -1.625 8.25 C-1.53476563 7.12078125 -1.44453125 5.9915625 -1.3515625 4.828125 C-1 2 -1 2 0 0 Z " fill="#E3E4E2" transform="translate(171,231)"/>
<path d="M0 0 C0.66 0 1.32 0 2 0 C2 10.56 2 21.12 2 32 C1.01 31.67 0.02 31.34 -1 31 C-1.87890625 24.84765625 -1.87890625 24.84765625 -2 23 C-1.67 22.67 -1.34 22.34 -1 22 C-0.84285346 20.36743242 -0.74914586 18.72864662 -0.68359375 17.08984375 C-0.62075195 15.60581055 -0.62075195 15.60581055 -0.55664062 14.09179688 C-0.49766602 12.53041992 -0.49766602 12.53041992 -0.4375 10.9375 C-0.39431641 9.89271484 -0.35113281 8.84792969 -0.30664062 7.77148438 C-0.20018775 5.18113116 -0.0981724 2.59067814 0 0 Z " fill="#1A1918" transform="translate(358,356)"/>
<path d="M0 0 C2.9375 0.875 2.9375 0.875 4.9375 3.875 C4.9375 5.195 4.9375 6.515 4.9375 7.875 C3.9475 7.545 2.9575 7.215 1.9375 6.875 C1.9375 6.215 1.9375 5.555 1.9375 4.875 C-0.47835574 4.90593173 -0.47835574 4.90593173 -3.0625 5.875 C-6.55840777 10.74430011 -6.72998441 16.07317633 -7.0625 21.875 C-7.3925 21.875 -7.7225 21.875 -8.0625 21.875 C-8.50840781 6.78845249 -8.50840781 6.78845249 -4.8125 0.875 C-3.0625 -0.125 -3.0625 -0.125 0 0 Z " fill="#1D1D1C" transform="translate(500.0625,355.125)"/>
<path d="M0 0 C0.33 0.99 0.66 1.98 1 3 C2.98 3 4.96 3 7 3 C6.56179109 7.55737263 6.14958831 10.57653445 3 14 C1.125 13.8125 1.125 13.8125 -1 13 C-2.25 10.4375 -2.25 10.4375 -3 8 C-2.34 8 -1.68 8 -1 8 C-0.02391783 5.07175348 0.08226668 3.04386724 0 0 Z " fill="#CFCECD" transform="translate(442,370)"/>
<path d="M0 0 C1.23556641 0.01740234 1.23556641 0.01740234 2.49609375 0.03515625 C3.32238281 0.04417969 4.14867187 0.05320312 5 0.0625 C5.63808594 0.07410156 6.27617187 0.08570313 6.93359375 0.09765625 C6.93359375 1.08765625 6.93359375 2.07765625 6.93359375 3.09765625 C4.29359375 3.42765625 1.65359375 3.75765625 -1.06640625 4.09765625 C-1.06640625 7.06765625 -1.06640625 10.03765625 -1.06640625 13.09765625 C1.57359375 13.42765625 4.21359375 13.75765625 6.93359375 14.09765625 C6.93359375 15.08765625 6.93359375 16.07765625 6.93359375 17.09765625 C3.63359375 17.09765625 0.33359375 17.09765625 -3.06640625 17.09765625 C-3.09325304 14.45175611 -3.11316982 11.80612529 -3.12890625 9.16015625 C-3.13728516 8.40541016 -3.14566406 7.65066406 -3.15429688 6.87304688 C-3.16293066 4.94771312 -3.11864958 3.02230044 -3.06640625 1.09765625 C-2.06640625 0.09765625 -2.06640625 0.09765625 0 0 Z " fill="#0B0A0A" transform="translate(386.06640625,369.90234375)"/>
<path d="M0 0 C0.99 0 1.98 0 3 0 C2.49396008 2.16874252 2.00016187 3.99967627 1 6 C1.66 6.33 2.32 6.66 3 7 C2.88597936 9.27141109 2.75841495 11.54214552 2.625 13.8125 C2.55539062 15.07707031 2.48578125 16.34164063 2.4140625 17.64453125 C2 21 2 21 0 24 C-0.30066154 26.75417318 -0.50925299 29.42645147 -0.625 32.1875 C-0.66367187 32.93708984 -0.70234375 33.68667969 -0.7421875 34.45898438 C-0.83628216 36.30559199 -0.91922319 38.1527619 -1 40 C-1.33 40 -1.66 40 -2 40 C-2.2756248 27.45907175 -1.55812144 15.22284571 -0.18359375 2.75561523 C0.01733467 1.12843539 0.01733467 1.12843539 0 0 Z " fill="#BDBDBC" transform="translate(436,277)"/>
<path d="M0 0 C3.63 0 7.26 0 11 0 C11 1.32 11 2.64 11 4 C8.03 4 5.06 4 2 4 C2.33 7.63 2.66 11.26 3 15 C2.01 15.33 1.02 15.66 0 16 C0 10.72 0 5.44 0 0 Z " fill="#181616" transform="translate(311,356)"/>
<path d="M0 0 C2.31 0 4.62 0 7 0 C7.02689216 1.47906892 7.04634621 2.95827483 7.0625 4.4375 C7.07410156 5.26121094 7.08570313 6.08492188 7.09765625 6.93359375 C7 9 7 9 6 10 C4.00041636 10.04080783 1.99954746 10.04254356 0 10 C0 6.7 0 3.4 0 0 Z " fill="#B2B0B0" transform="translate(463,269)"/>
<path d="M0 0 C3.96 0 7.92 0 12 0 C12 1.32 12 2.64 12 4 C10.68 4 9.36 4 8 4 C8 3.34 8 2.68 8 2 C7.34 2 6.68 2 6 2 C5.67 11.9 5.34 21.8 5 32 C4.67 32 4.34 32 4 32 C4 22.76 4 13.52 4 4 C2.68 4 1.36 4 0 4 C0 2.68 0 1.36 0 0 Z " fill="#454343" transform="translate(365,356)"/>
<path d="M0 0 C0.99 0.66 1.98 1.32 3 2 C2.3709375 1.97679687 1.741875 1.95359375 1.09375 1.9296875 C-8.85674875 1.71988783 -16.93937781 3.30432653 -24.4375 10.26171875 C-26.66188001 12.47567198 -28.84778791 14.71601983 -31 17 C-31 12.85948058 -29.38630744 11.95315429 -26.5 9.0625 C-18.10609299 1.0207849 -11.82476746 -1.39114911 0 0 Z " fill="#A5A5A7" transform="translate(245,177)"/>
<path d="M0 0 C0.33 0 0.66 0 1 0 C1.33 4.95 1.66 9.9 2 15 C2.33 13.68 2.66 12.36 3 11 C3.66 11 4.32 11 5 11 C5 14.3 5 17.6 5 21 C3.68 21.33 2.36 21.66 1 22 C1 25.3 1 28.6 1 32 C0.67 32 0.34 32 0 32 C0 21.44 0 10.88 0 0 Z " fill="#BCBBBA" transform="translate(430,356)"/>
<path d="M0 0 C0.33 0 0.66 0 1 0 C0.67 6.27 0.34 12.54 0 19 C-8.91 19 -17.82 19 -27 19 C-27 18.67 -27 18.34 -27 18 C-18.42 18 -9.84 18 -1 18 C-1 13.71 -1 9.42 -1 5 C-4.63 5 -8.26 5 -12 5 C-12 4.67 -12 4.34 -12 4 C-10.95199219 3.94392578 -10.95199219 3.94392578 -9.8828125 3.88671875 C-8.97273438 3.82097656 -8.06265625 3.75523437 -7.125 3.6875 C-5.76761719 3.60048828 -5.76761719 3.60048828 -4.3828125 3.51171875 C-1.63778399 3.2117961 -1.63778399 3.2117961 0 0 Z " fill="#242627" transform="translate(508,314)"/>
<path d="M0 0 C2.67927341 4.01891012 2.15601248 6.24161923 2 11 C4.97 11 7.94 11 11 11 C11 12.32 11 13.64 11 15 C7.37 15 3.74 15 0 15 C0 10.05 0 5.1 0 0 Z " fill="#232323" transform="translate(511,373)"/>
<path d="M0 0 C2.31 0 4.62 0 7 0 C7 2.97 7 5.94 7 9 C4.69 9 2.38 9 0 9 C0 6.03 0 3.06 0 0 Z " fill="#B1AFB0" transform="translate(461,291)"/>
<path d="M0 0 C0.85659135 3.08084955 1.26941369 6.06792001 1.5625 9.25 C1.64628906 10.14203125 1.73007812 11.0340625 1.81640625 11.953125 C1.87699219 12.62859375 1.93757813 13.3040625 2 14 C1.01 14.33 0.02 14.66 -1 15 C6.92 15.33 14.84 15.66 23 16 C23 16.33 23 16.66 23 17 C14.42 17 5.84 17 -3 17 C-2.30778317 10.77004856 -1.5972643 5.85663575 0 0 Z " fill="#ACACAC" transform="translate(277,225)"/>
<path d="M0 0 C0.33 0 0.66 0 1 0 C0.67 10.89 0.34 21.78 0 33 C-0.33 33 -0.66 33 -1 33 C-1.33 27.72 -1.66 22.44 -2 17 C-2.66 17.33 -3.32 17.66 -4 18 C-3.48914188 11.56318772 -2.27057103 6.04057576 0 0 Z " fill="#595858" transform="translate(179,176)"/>
<path d="M0 0 C0.99 0 1.98 0 3 0 C3 6.27 3 12.54 3 19 C2.01 19 1.02 19 0 19 C0 12.73 0 6.46 0 0 Z " fill="#BFC0C0" transform="translate(490,677)"/>
<path d="M0 0 C0.33 0 0.66 0 1 0 C1.33 2.97 1.66 5.94 2 9 C4.97 9.33 7.94 9.66 11 10 C11 11.32 11 12.64 11 14 C7.37 14 3.74 14 0 14 C0 9.38 0 4.76 0 0 Z " fill="#161616" transform="translate(311,374)"/>
<path d="M0 0 C0.33 0 0.66 0 1 0 C1.33 1.98 1.66 3.96 2 6 C2.99 4.68 3.98 3.36 5 2 C5 5.3 5 8.6 5 12 C4.01 11.67 3.02 11.34 2 11 C2.02320313 11.62648438 2.04640625 12.25296875 2.0703125 12.8984375 C2.08835937 13.71570313 2.10640625 14.53296875 2.125 15.375 C2.14820313 16.18710937 2.17140625 16.99921875 2.1953125 17.8359375 C2 20 2 20 0 22 C0 14.74 0 7.48 0 0 Z " fill="#D8D6D4" transform="translate(486,365)"/>
<path d="M0 0 C3.63 0 7.26 0 11 0 C11 0.33 11 0.66 11 1 C7.7 1 4.4 1 1 1 C1 2.98 1 4.96 1 7 C3.97 7 6.94 7 10 7 C10 7.99 10 8.98 10 10 C7.36 10 4.72 10 2 10 C2 11.98 2 13.96 2 16 C1.67 16 1.34 16 1 16 C0.07962623 10.59280411 -0.08441199 5.48677955 0 0 Z " fill="#C4C3C1" transform="translate(256,678)"/>
<path d="M0 0 C0.33 0.66 0.66 1.32 1 2 C3.31 2 5.62 2 8 2 C8 1.34 8 0.68 8 0 C8.66 0 9.32 0 10 0 C11.25664978 2.90600261 12 4.79604584 12 8 C11.34 8 10.68 8 10 8 C9.67 6.68 9.34 5.36 9 4 C4.545 4.495 4.545 4.495 0 5 C-0.33 5.99 -0.66 6.98 -1 8 C-1.66 8 -2.32 8 -3 8 C-2.74438677 5.6568787 -2.40729228 3.32156597 -2 1 C-1.34 0.67 -0.68 0.34 0 0 Z " fill="#B3B3B3" transform="translate(457,688)"/>
<path d="M0 0 C2.5625 0.1875 2.5625 0.1875 4.5625 2.1875 C4.1875 4.8125 4.1875 4.8125 3.5625 7.1875 C1.2525 7.1875 -1.0575 7.1875 -3.4375 7.1875 C-3.48004356 5.18795254 -3.47830783 3.18708364 -3.4375 1.1875 C-2.4375 0.1875 -2.4375 0.1875 0 0 Z " fill="#F8F8F6" transform="translate(276.4375,678.8125)"/>
<path d="M0 0 C0.144375 0.61875 0.28875 1.2375 0.4375 1.875 C0.93152225 4.03258322 0.93152225 4.03258322 2 6 C2.27620053 8.72254806 2.44599571 11.44499691 2.62109375 14.17578125 C3.00906719 17.06758326 3.80721714 19.34883485 5 22 C4.34 22 3.68 22 3 22 C2.67 22.66 2.34 23.32 2 24 C-0.79977681 19.24774726 -1.35919704 15.79965115 -1.25 10.3125 C-1.23453125 9.00925781 -1.2190625 7.70601563 -1.203125 6.36328125 C-1 3 -1 3 0 0 Z " fill="#373635" transform="translate(492,361)"/>
<path d="M0 0 C0.99 0 1.98 0 3 0 C2.27623543 3.49403583 0.93714794 6.51998905 -0.5625 9.75 C-1.01753906 10.73484375 -1.47257812 11.7196875 -1.94140625 12.734375 C-2.29074219 13.48203125 -2.64007813 14.2296875 -3 15 C-3.33 14.34 -3.66 13.68 -4 13 C-4.99 13 -5.98 13 -7 13 C-7 12.34 -7 11.68 -7 11 C-6.34 11 -5.68 11 -5 11 C-4.731875 10.113125 -4.46375 9.22625 -4.1875 8.3125 C-3.06886949 5.19210962 -1.96196863 2.66827733 0 0 Z " fill="#2B2B2B" transform="translate(302,356)"/>
<path d="M0 0 C1.32 0.66 2.64 1.32 4 2 C4 3.32 4 4.64 4 6 C3 7 3 7 -0.59765625 7.09765625 C-2.08596867 7.0909822 -3.57426432 7.07902183 -5.0625 7.0625 C-5.82111328 7.05798828 -6.57972656 7.05347656 -7.36132812 7.04882812 C-9.24091871 7.0370068 -11.12046899 7.01907078 -13 7 C-13 6.67 -13 6.34 -13 6 C-8.38 6 -3.76 6 1 6 C1 5.34 1 4.68 1 4 C-3.29 4 -7.58 4 -12 4 C-12 3.67 -12 3.34 -12 3 C-8.37 3 -4.74 3 -1 3 C-0.67 2.01 -0.34 1.02 0 0 Z " fill="#888687" transform="translate(320,272)"/>
<path d="M0 0 C0.66 1.32 1.32 2.64 2 4 C4.18541552 4.6993514 4.18541552 4.6993514 6.625 4.75 C7.85089844 4.83507812 7.85089844 4.83507812 9.1015625 4.921875 C9.72804688 4.94765625 10.35453125 4.9734375 11 5 C11 6.32 11 7.64 11 9 C7.37 9 3.74 9 0 9 C0 6.03 0 3.06 0 0 Z " fill="#111111" transform="translate(457,379)"/>
<path d="M0 0 C0.66 0 1.32 0 2 0 C2.66 3.63 3.32 7.26 4 11 C2.35 11.33 0.7 11.66 -1 12 C-2.1875 10.5 -2.1875 10.5 -3 8 C-2.27101296 5.21175762 -1.1843275 2.62334908 0 0 Z " fill="#A7A7A8" transform="translate(394,265)"/>
<path d="M0 0 C0.66 0.33 1.32 0.66 2 1 C1.05125 1.495 0.1025 1.99 -0.875 2.5 C-3.76364124 4.38034194 -4.57127452 5.91690316 -5.375 9.25 C-5.58125 10.4875 -5.7875 11.725 -6 13 C-3.03 13 -0.06 13 3 13 C3 13.33 3 13.66 3 14 C1.35425434 14.02688151 -0.29161413 14.04634123 -1.9375 14.0625 C-2.85402344 14.07410156 -3.77054687 14.08570313 -4.71484375 14.09765625 C-7 14 -7 14 -8 13 C-8.07179964 11.48071962 -8.08392007 9.95832518 -8.0625 8.4375 C-8.05347656 7.61121094 -8.04445313 6.78492188 -8.03515625 5.93359375 C-8.02355469 5.29550781 -8.01195312 4.65742188 -8 4 C-6.71349294 3.30289269 -5.42059335 2.61757124 -4.125 1.9375 C-3.40570313 1.55464844 -2.68640625 1.17179688 -1.9453125 0.77734375 C-1.30335938 0.52082031 -0.66140625 0.26429688 0 0 Z " fill="#989696" transform="translate(507,243)"/>
<path d="M0 0 C0.33 0 0.66 0 1 0 C1.33 1.98 1.66 3.96 2 6 C2.66 4.68 3.32 3.36 4 2 C4 5.63 4 9.26 4 13 C2.02 13 0.04 13 -2 13 C-1.48041715 8.62065881 -0.94324258 4.31196609 0 0 Z " fill="#BDBAB7" transform="translate(469,224)"/>
<path d="M0 0 C2.64 0 5.28 0 8 0 C8 0.33 8 0.66 8 1 C6.02 1.33 4.04 1.66 2 2 C1.67 4.31 1.34 6.62 1 9 C3.64 9 6.28 9 9 9 C9 9.66 9 10.32 9 11 C6.69 11 4.38 11 2 11 C2 13.31 2 15.62 2 18 C1.34 18 0.68 18 0 18 C0 12.06 0 6.12 0 0 Z " fill="#B5B7B7" transform="translate(196,678)"/>
<path d="M0 0 C3.50778211 4.20933853 7 9.4255442 7 15 C6.01 15 5.02 15 4 15 C3.16180842 13.37750059 2.3295884 11.75191503 1.5 10.125 C1.0359375 9.22007812 0.571875 8.31515625 0.09375 7.3828125 C-1 5 -1 5 -1 3 C-1.66 2.67 -2.32 2.34 -3 2 C-2.01 1.34 -1.02 0.68 0 0 Z " fill="#181617" transform="translate(298,373)"/>
<path d="M0 0 C0.66 0 1.32 0 2 0 C3.65 3.63 5.3 7.26 7 11 C6.01 11 5.02 11 4 11 C2.68 11.33 1.36 11.66 0 12 C0 8.04 0 4.08 0 0 Z " fill="#D2D3D3" transform="translate(295,376)"/>
<path d="M0 0 C0 4.62 0 9.24 0 14 C-0.66 14 -1.32 14 -2 14 C-2.50512244 12.39743892 -3.00391627 10.79288208 -3.5 9.1875 C-3.7784375 8.29417969 -4.056875 7.40085937 -4.34375 6.48046875 C-5 4 -5 4 -5 1 C-1.125 0 -1.125 0 0 0 Z " fill="#BAB7B6" transform="translate(412,257)"/>
<path d="M0 0 C2.31 0 4.62 0 7 0 C7.38218767 1.65614657 7.71395102 3.32457024 8 5 C7 6 7 6 3.4375 6.0625 C2.303125 6.041875 1.16875 6.02125 0 6 C0 4.02 0 2.04 0 0 Z " fill="#FBFAF8" transform="translate(331,688)"/>
<path d="M0 0 C2.31 0 4.62 0 7 0 C7.38218767 1.65614657 7.71395102 3.32457024 8 5 C7 6 7 6 3.4375 6.0625 C2.303125 6.041875 1.16875 6.02125 0 6 C0 4.02 0 2.04 0 0 Z " fill="#FDFDFC" transform="translate(198,680)"/>
<path d="M0 0 C0.33 0.99 0.66 1.98 1 3 C-0.75 5 -0.75 5 -3 7 C-4.32 7 -5.64 7 -7 7 C-7 7.66 -7 8.32 -7 9 C-1.39 9 4.22 9 10 9 C10 9.33 10 9.66 10 10 C4.06 10 -1.88 10 -8 10 C-8 8.68 -8 7.36 -8 6 C-6.25 4.296875 -6.25 4.296875 -4 2.75 C-3.2575 2.22921875 -2.515 1.7084375 -1.75 1.171875 C-1.1725 0.78515625 -0.595 0.3984375 0 0 Z " fill="#959495" transform="translate(357,269)"/>
<path d="M0 0 C2.2528047 2.2528047 2.5496379 3.39092488 3.25 6.4375 C3.44078125 7.21996094 3.6315625 8.00242187 3.828125 8.80859375 C4 11 4 11 2 14 C2 14.99 2 15.98 2 17 C1.34 17.99 0.68 18.98 0 20 C0 13.4 0 6.8 0 0 Z " fill="#CECDCE" transform="translate(350,367)"/>
<path d="M0 0 C0.33 0 0.66 0 1 0 C1.07347656 1.01320313 1.07347656 1.01320313 1.1484375 2.046875 C1.22320312 2.93890625 1.29796875 3.8309375 1.375 4.75 C1.44460938 5.63171875 1.51421875 6.5134375 1.5859375 7.421875 C2.00143269 10.00892053 2.8093992 11.69623586 4 14 C4 14.99 4 15.98 4 17 C5.32 17.33 6.64 17.66 8 18 C7.67 18.66 7.34 19.32 7 20 C3.93178771 19.08782878 2.30873502 18.39449475 0.3125 15.84375 C-1.32690047 12.29171565 -1.11675065 10.05075584 -0.6875 6.1875 C-0.56761719 5.02605469 -0.44773437 3.86460937 -0.32421875 2.66796875 C-0.21722656 1.78753906 -0.11023438 0.90710938 0 0 Z " fill="#1F1D1D" transform="translate(437,368)"/>
<path d="M0 0 C0.33 0 0.66 0 1 0 C1 6.93 1 13.86 1 21 C-1.46301423 18.53698577 -1.76766521 16.72639964 -2.625 13.375 C-2.88539063 12.37210937 -3.14578125 11.36921875 -3.4140625 10.3359375 C-3.70410156 9.17964844 -3.70410156 9.17964844 -4 8 C-3.01 8 -2.02 8 -1 8 C-0.67 5.36 -0.34 2.72 0 0 Z " fill="#C9CACA" transform="translate(357,356)"/>
<path d="M0 0 C0.33 0 0.66 0 1 0 C0.67 6.93 0.34 13.86 0 21 C-0.33 19.68 -0.66 18.36 -1 17 C-1.66 17 -2.32 17 -3 17 C-3 13.37 -3 9.74 -3 6 C-2.01 5.67 -1.02 5.34 0 5 C0 3.35 0 1.7 0 0 Z " fill="#DDDDDC" transform="translate(447,305)"/>
<path d="M0 0 C2.875 -0.125 2.875 -0.125 6 0 C6.66 0.66 7.32 1.32 8 2 C7.625 4.125 7.625 4.125 7 6 C4.69 6 2.38 6 0 6 C0 4.02 0 2.04 0 0 Z " fill="#F9F8F7" transform="translate(331,679)"/>
<path d="M0 0 C3.96 0 7.92 0 12 0 C12 0.33 12 0.66 12 1 C9.69 1.66 7.38 2.32 5 3 C4.67 7.29 4.34 11.58 4 16 C2.18751015 12.3750203 1.68111085 10.62740416 1.375 6.75 C1.30023438 5.85796875 1.22546875 4.9659375 1.1484375 4.046875 C1.07496094 3.03367187 1.07496094 3.03367187 1 2 C0.01 2.495 0.01 2.495 -1 3 C-0.67 2.01 -0.34 1.02 0 0 Z " fill="#D4D4D3" transform="translate(377,277)"/>
<path d="M0 0 C1.32 0 2.64 0 4 0 C7.42857143 7.28571429 7.42857143 7.28571429 7 12 C7.66 12 8.32 12 9 12 C9 12.99 9 13.98 9 15 C8.01 15 7.02 15 6 15 C4.68 11.04 3.36 7.08 2 3 C1.34 3.66 0.68 4.32 0 5 C0 3.35 0 1.7 0 0 Z " fill="#B8BBB8" transform="translate(433,681)"/>
<path d="M0 0 C0.66 0 1.32 0 2 0 C1.835 0.7425 1.67 1.485 1.5 2.25 C0.69071353 6.70107558 1.19991806 10.59954932 2 15 C1.01 14.67 0.02 14.34 -1 14 C-2.1875 10.4375 -2.1875 10.4375 -3 7 C-4.65 7 -6.3 7 -8 7 C-8 6.67 -8 6.34 -8 6 C-7.05125 5.7525 -6.1025 5.505 -5.125 5.25 C-1.91306809 4.3142923 -1.91306809 4.3142923 -0.625 1.875 C-0.41875 1.25625 -0.2125 0.6375 0 0 Z " fill="#B3B5B1" transform="translate(282,681)"/>
<path d="M0 0 C1.65 0 3.3 0 5 0 C4.34 0.66 3.68 1.32 3 2 C2.83318891 5.08347826 2.83318891 5.08347826 3 8 C4.65 8 6.3 8 8 8 C8.33 8.66 8.66 9.32 9 10 C6.03 10 3.06 10 0 10 C0 6.7 0 3.4 0 0 Z " fill="#C4C2C3" transform="translate(459,374)"/>
<path d="M0 0 C2.64 0 5.28 0 8 0 C8 2.97 8 5.94 8 9 C7.34 9 6.68 9 6 9 C6 7.35 6 5.7 6 4 C4.02 4 2.04 4 0 4 C0 2.68 0 1.36 0 0 Z " fill="#121210" transform="translate(443,369)"/>
<path d="M0 0 C2.40820361 2.40820361 2.68097423 3.65022937 3 7 C2.0625 9.3125 2.0625 9.3125 1 11 C-0.32 10.67 -1.64 10.34 -3 10 C-2.25 3.375 -2.25 3.375 0 0 Z " fill="#DBD7D4" transform="translate(211,161)"/>
<path d="M0 0 C0 5.28 0 10.56 0 16 C-0.66 16 -1.32 16 -2 16 C-2 11.38 -2 6.76 -2 2 C-4.31 2.33 -6.62 2.66 -9 3 C-5.73209435 0.82139623 -3.91954654 0 0 0 Z " fill="#494949" transform="translate(515,226)"/>
<path d="M0 0 C0.33 0 0.66 0 1 0 C1.25 2.3125 1.25 2.3125 1 5 C-1.39796393 7.49200173 -2.75874591 7.97814727 -6.234375 8.29296875 C-7.39453125 8.25816406 -8.5546875 8.22335937 -9.75 8.1875 C-10.92046875 8.16042969 -12.0909375 8.13335937 -13.296875 8.10546875 C-14.18890625 8.07066406 -15.0809375 8.03585937 -16 8 C-16 7.34 -16 6.68 -16 6 C-14.77023437 5.97873047 -14.77023437 5.97873047 -13.515625 5.95703125 C-6.76656162 5.89171159 -6.76656162 5.89171159 -1.3125 2.4375 C-0.6628125 1.2309375 -0.6628125 1.2309375 0 0 Z " fill="#ABACAF" transform="translate(479,327)"/>
<path d="M0 0 C3.63 0 7.26 0 11 0 C11 3.3 11 6.6 11 10 C10.67 10 10.34 10 10 10 C10 7.69 10 5.38 10 3 C6.7 3 3.4 3 0 3 C0 2.01 0 1.02 0 0 Z " fill="#A7A6A5" transform="translate(402,240)"/>
<path d="M0 0 C0.33 0 0.66 0 1 0 C1 2.31 1 4.62 1 7 C4.63 7 8.26 7 12 7 C12 7.66 12 8.32 12 9 C7.71 9 3.42 9 -1 9 C-1.09765625 2.84765625 -1.09765625 2.84765625 -1 1 C-0.67 0.67 -0.34 0.34 0 0 Z " fill="#B8B9B7" transform="translate(289,687)"/>
<path d="M0 0 C3.63 0 7.26 0 11 0 C11 1.32 11 2.64 11 4 C8.03 4 5.06 4 2 4 C1.34 2.68 0.68 1.36 0 0 Z " fill="#1E1D1C" transform="translate(457,356)"/>
<path d="M0 0 C2 1 2 1 2 1 Z M7 2 C8.175625 2.185625 9.35125 2.37125 10.5625 2.5625 C11.366875 2.706875 12.17125 2.85125 13 3 C13 3.33 13 3.66 13 4 C3.60394198 4.10731538 -5.64087671 3.99263429 -15 3 C-15 2.67 -15 2.34 -15 2 C-7.50409698 1.24693401 -0.45050953 0.75824841 7 2 Z " fill="#C1C1C0" transform="translate(392,274)"/>
<path d="M0 0 C0.99 1.485 0.99 1.485 2 3 C2.99 2.67 3.98 2.34 5 2 C5.125 4.375 5.125 4.375 5 7 C4.34 7.66 3.68 8.32 3 9 C2.29289322 10.64991582 1.62056011 12.31562256 1 14 C0.67 14 0.34 14 0 14 C0 9.38 0 4.76 0 0 Z " fill="#E5E7E7" transform="translate(179,183)"/>
<path d="M0 0 C3.96 0 7.92 0 12 0 C12 0.66 12 1.32 12 2 C7.545 2.495 7.545 2.495 3 3 C2.67 4.98 2.34 6.96 2 9 C1.34 8.67 0.68 8.34 0 8 C0 5.36 0 2.72 0 0 Z " fill="#BDBDBC" transform="translate(288,677)"/>
<path d="M0 0 C3 1 3 1 4 3 C4.66 2.34 5.32 1.68 6 1 C6 5.62 6 10.24 6 15 C4.19969878 12.29954818 3.06622934 9.93322119 1.875 6.9375 C1.52179688 6.05964844 1.16859375 5.18179687 0.8046875 4.27734375 C0 2 0 2 0 0 Z " fill="#DBD9D8" transform="translate(477,361)"/>
<path d="M0 0 C2.67438936 2.38335287 4.15158012 4.87036148 5.75 8.0625 C6.19859375 8.94035156 6.6471875 9.81820312 7.109375 10.72265625 C7.40328125 11.47417969 7.6971875 12.22570312 8 13 C7.67 13.66 7.34 14.32 7 15 C5.6578508 13.40320196 4.32652885 11.79729803 3 10.1875 C2.2575 9.29417969 1.515 8.40085938 0.75 7.48046875 C-1 5 -1 5 -1 2 C-0.67 1.34 -0.34 0.68 0 0 Z " fill="#282729" transform="translate(272,192)"/>
<path d="M0 0 C4.25209792 4.12324647 8.13635705 8.51282966 12 13 C11.67 13.66 11.34 14.32 11 15 C6.66666667 10.66666667 2.33333333 6.33333333 -2 2 C-1.34 2 -0.68 2 0 2 C0 1.34 0 0.68 0 0 Z " fill="#353636" transform="translate(249,373)"/>
<path d="M0 0 C0.66 0.66 1.32 1.32 2 2 C1.25675659 4.39489543 0.52942646 5.70777616 -1.69140625 6.93359375 C-3.44073501 7.67219923 -5.21934149 8.34049685 -7 9 C-7.33 8.34 -7.66 7.68 -8 7 C-6.68 5.02 -5.36 3.04 -4 1 C-3.34 1.33 -2.68 1.66 -2 2 C-1.34 1.34 -0.68 0.68 0 0 Z " fill="#E2E2E2" transform="translate(357,339)"/>
<path d="M0 0 C0.66 0 1.32 0 2 0 C0.22073579 5.59197324 0.22073579 5.59197324 -1.03125 7.90625 C-2.11886992 10.25691241 -2.39805783 12.17798869 -2.625 14.75 C-2.69976562 15.54921875 -2.77453125 16.3484375 -2.8515625 17.171875 C-2.90054687 17.77515625 -2.94953125 18.3784375 -3 19 C-3.33 19 -3.66 19 -4 19 C-4.06058594 18.37351562 -4.12117188 17.74703125 -4.18359375 17.1015625 C-4.26738281 16.28429687 -4.35117187 15.46703125 -4.4375 14.625 C-4.51871094 13.81289063 -4.59992188 13.00078125 -4.68359375 12.1640625 C-4.89090114 9.95727195 -4.89090114 9.95727195 -6 8 C-5.566875 7.608125 -5.13375 7.21625 -4.6875 6.8125 C-2.85439739 4.97761098 -2.85439739 4.97761098 -1.4375 2.3125 C-0.7259375 1.1678125 -0.7259375 1.1678125 0 0 Z " fill="#C8C9C7" transform="translate(356,677)"/>
<path d="M0 0 C3.96 0 7.92 0 12 0 C12 0.99 12 1.98 12 3 C8.04 3 4.08 3 0 3 C0 2.01 0 1.02 0 0 Z " fill="#A4A5A5" transform="translate(378,240)"/>
<path d="M0 0 C2.0842591 1.68934685 2.93146237 2.53329138 3.328125 5.234375 C3.30234375 6.06453125 3.2765625 6.8946875 3.25 7.75 C3.22421875 8.62914062 3.1984375 9.50828125 3.171875 10.4140625 C2.95623608 13.65844814 2.55704343 16.79700027 2 20 C1.67 20 1.34 20 1 20 C0.11978631 13.28837062 -0.11381955 6.76594019 0 0 Z " fill="#D2CDC9" transform="translate(484,231)"/>
<path d="M0 0 C0.33 0 0.66 0 1 0 C1 1.98 1 3.96 1 6 C-0.65 6 -2.3 6 -4 6 C-5.76615118 10.70973649 -6.48594831 15.03083364 -7 20 C-7.33 20 -7.66 20 -8 20 C-8.10251672 14.87416389 -8.03590199 10.05002222 -7 5 C-4.69 5 -2.38 5 0 5 C0 3.35 0 1.7 0 0 Z " fill="#ACAAAA" transform="translate(370,245)"/>
<path d="M0 0 C0.33 0 0.66 0 1 0 C1.33 1.65 1.66 3.3 2 5 C2.33 5 2.66 5 3 5 C3.08131463 6.43655854 3.13933559 7.8744483 3.1875 9.3125 C3.23970703 10.51326172 3.23970703 10.51326172 3.29296875 11.73828125 C3 14 3 14 0 17 C0 11.39 0 5.78 0 0 Z " fill="#CCCCCE" transform="translate(508,322)"/>
<path d="M0 0 C0.33 0 0.66 0 1 0 C1 1.98 1 3.96 1 6 C5.455 5.505 5.455 5.505 10 5 C10 3.68 10 2.36 10 1 C10.66 1 11.32 1 12 1 C12 2.65 12 4.3 12 6 C8.00439392 8.83022097 4.57262677 7.76210446 0 7 C0 4.69 0 2.38 0 0 Z " fill="#C3C3C1" transform="translate(197,680)"/>
<path d="M0 0 C2.375 -0.125 2.375 -0.125 5 0 C7 2 7 2 7.125 4.625 C7.08375 5.40875 7.0425 6.1925 7 7 C6.34 7 5.68 7 5 7 C4.67 6.34 4.34 5.68 4 5 C1.98330173 3.86649466 1.98330173 3.86649466 0 3 C0 2.01 0 1.02 0 0 Z " fill="#1C1C1C" transform="translate(442,356)"/>
<path d="M0 0 C3.3 0 6.6 0 10 0 C10 0.99 10 1.98 10 3 C6.7 3.33 3.4 3.66 0 4 C0 2.68 0 1.36 0 0 Z " fill="#0F0F0F" transform="translate(383,357)"/>
<path d="M0 0 C0.33 0 0.66 0 1 0 C1.66 2.31 2.32 4.62 3 7 C3.66 6.67 4.32 6.34 5 6 C4.34 8.97 3.68 11.94 3 15 C0.22957891 12.22957891 0.60203894 10.23466195 0.375 6.375 C0.30023438 5.18648438 0.22546875 3.99796875 0.1484375 2.7734375 C0.09945313 1.85820312 0.05046875 0.94296875 0 0 Z " fill="#F0EDEA" transform="translate(486,358)"/>
<path d="M0 0 C0.99 0 1.98 0 3 0 C2.49396008 2.16874252 2.00016187 3.99967627 1 6 C1.66 6.33 2.32 6.66 3 7 C2.625 9.9375 2.625 9.9375 2 13 C1.01 13.495 1.01 13.495 0 14 C0 9.38 0 4.76 0 0 Z " fill="#D8D9D8" transform="translate(436,277)"/>
<path d="M0 0 C2.97 0 5.94 0 9 0 C9 0.99 9 1.98 9 3 C5.7 3 2.4 3 -1 3 C-0.67 2.01 -0.34 1.02 0 0 Z " fill="#080505" transform="translate(513,384)"/>
<path d="M0 0 C2.97 0 5.94 0 9 0 C9 0.99 9 1.98 9 3 C5.7 3 2.4 3 -1 3 C-0.67 2.01 -0.34 1.02 0 0 Z " fill="#0D0A08" transform="translate(459,370)"/>
<path d="M0 0 C1.77074917 -0.02705729 3.54161711 -0.04642195 5.3125 -0.0625 C6.29863281 -0.07410156 7.28476563 -0.08570313 8.30078125 -0.09765625 C11 0 11 0 14 1 C13.34 2.32 12.68 3.64 12 5 C10.68 4.34 9.36 3.68 8 3 C8 2.34 8 1.68 8 1 C5.36 1 2.72 1 0 1 C0 0.67 0 0.34 0 0 Z " fill="#F47A3D" transform="translate(211,145)"/>
<path d="M0 0 C0.66 0.33 1.32 0.66 2 1 C1 4 1 4 -1 5 C-4.5 5.1875 -4.5 5.1875 -8 5 C-8.66 4.34 -9.32 3.68 -10 3 C-9.34 2.34 -8.68 1.68 -8 1 C-7.67 1.33 -7.34 1.66 -7 2 C-4.66702567 2.04092937 -2.33294775 2.04241723 0 2 C0 1.34 0 0.68 0 0 Z " fill="#BEBFBE" transform="translate(224,691)"/>
<path d="M0 0 C2 3 2 3 3 6 C2.34 6 1.68 6 1 6 C0.87625 6.969375 0.7525 7.93875 0.625 8.9375 C0.41875 9.948125 0.2125 10.95875 0 12 C-0.99 12.495 -0.99 12.495 -2 13 C-1.85851011 11.3954444 -1.71164314 9.79136233 -1.5625 8.1875 C-1.48128906 7.29417969 -1.40007812 6.40085937 -1.31640625 5.48046875 C-1 3 -1 3 0 0 Z " fill="#C5C4C2" transform="translate(239,678)"/>
<path d="M0 0 C8.57142857 -0.28571429 8.57142857 -0.28571429 12 2 C11.67 3.65 11.34 5.3 11 7 C10.62875 6.34 10.2575 5.68 9.875 5 C8.09105222 2.64696955 8.09105222 2.64696955 4.8125 2.75 C3.884375 2.8325 2.95625 2.915 2 3 C2 2.34 2 1.68 2 1 C1.34 0.67 0.68 0.34 0 0 Z " fill="#C4C5C3" transform="translate(271,677)"/>
<path d="M0 0 C2.05078125 0.03255208 4.1015625 0.06510417 6.15234375 0.09765625 C6.15234375 0.42765625 6.15234375 0.75765625 6.15234375 1.09765625 C5.38921875 1.09765625 4.62609375 1.09765625 3.83984375 1.09765625 C1.05165545 1.79945774 1.05165545 1.79945774 0.15234375 3.9453125 C-0.59434276 5.9807512 -1.26281154 8.01028367 -1.84765625 10.09765625 C-2.17765625 10.09765625 -2.50765625 10.09765625 -2.84765625 10.09765625 C-2.87454841 8.61858733 -2.89400246 7.13938142 -2.91015625 5.66015625 C-2.92175781 4.83644531 -2.93335938 4.01273437 -2.9453125 3.1640625 C-2.8198894 0.51010975 -2.66068535 0.14062819 0 0 Z " fill="#A4A2A1" transform="translate(386.84765625,372.90234375)"/>
<path d="M0 0 C0.66 0 1.32 0 2 0 C1.67 4.29 1.34 8.58 1 13 C0.34 13 -0.32 13 -1 13 C-1.02696365 11.20841511 -1.04637917 9.41671527 -1.0625 7.625 C-1.07410156 6.62726563 -1.08570313 5.62953125 -1.09765625 4.6015625 C-1 2 -1 2 0 0 Z " fill="#282624" transform="translate(436,364)"/>
<path d="M0 0 C0.33 0 0.66 0 1 0 C1 4.62 1 9.24 1 14 C0.01 13.34 -0.98 12.68 -2 12 C-2.40843923 9.28796348 -2.13336867 6.7562858 -2 4 C-1.34 4 -0.68 4 0 4 C0 2.68 0 1.36 0 0 Z " fill="#C5C3C3" transform="translate(450,258)"/>
<path d="M0 0 C3.9252025 3.70090521 6.94580156 7.54959656 10 12 C9.01 12.495 9.01 12.495 8 13 C8 12.34 8 11.68 8 11 C7.01 10.67 6.02 10.34 5 10 C3.61328125 8.4765625 3.61328125 8.4765625 2.3125 6.625 C1.87550781 6.01914062 1.43851563 5.41328125 0.98828125 4.7890625 C0 3 0 3 0 0 Z " fill="#BBBBC0" transform="translate(210,333)"/>
<path d="M0 0 C-0.33 1.32 -0.66 2.64 -1 4 C-1.33 3.34 -1.66 2.68 -2 2 C-2.33 2.66 -2.66 3.32 -3 4 C-5.64 4 -8.28 4 -11 4 C-7.26280719 0.48264206 -5.13496308 -0.47767098 0 0 Z " fill="#D2D2D3" transform="translate(510,313)"/>
<path d="M0 0 C1.32 0 2.64 0 4 0 C3.67 1.98 3.34 3.96 3 6 C3.66 6 4.32 6 5 6 C5 6.66 5 7.32 5 8 C3.35 8 1.7 8 0 8 C0 5.36 0 2.72 0 0 Z " fill="#C8C6C6" transform="translate(462,291)"/>
<path d="M0 0 C1.32 0 2.64 0 4 0 C4.20086443 3.71599191 4.1519437 4.77208445 2 8 C1.34 8 0.68 8 0 8 C0 5.36 0 2.72 0 0 Z " fill="#D5D6D5" transform="translate(426,238)"/>
<path d="M0 0 C3 3.625 3 3.625 3 7 C1.02 7 -0.96 7 -3 7 C-2.01 4.69 -1.02 2.38 0 0 Z " fill="#F6F4F4" transform="translate(461,682)"/>
<path d="M0 0 C2.24956302 2.24956302 3.00510965 4.06323263 4.1875 7 C4.55230469 7.886875 4.91710937 8.77375 5.29296875 9.6875 C6 12 6 12 5 14 C3.964031 12.42652824 2.94668268 10.84078454 1.9375 9.25 C1.36902344 8.36828125 0.80054688 7.4865625 0.21484375 6.578125 C-1 4 -1 4 -0.68359375 1.671875 C-0.45800781 1.12015625 -0.23242188 0.5684375 0 0 Z " fill="#F48C57" transform="translate(223,312)"/>
<path d="M0 0 C0.66 0.33 1.32 0.66 2 1 C1.67 4.3 1.34 7.6 1 11 C0.67 10.34 0.34 9.68 0 9 C-0.66 9 -1.32 9 -2 9 C-2 7.02 -2 5.04 -2 3 C-1.34 3 -0.68 3 0 3 C0 2.01 0 1.02 0 0 Z " fill="#E7E6E4" transform="translate(441,369)"/>
<path d="M0 0 C3 1 3 1 4.1875 2.875 C5 5 5 5 5 8 C4.34 8 3.68 8 3 8 C3 7.34 3 6.68 3 6 C2.01 6 1.02 6 0 6 C0 4.02 0 2.04 0 0 Z " fill="#11100F" transform="translate(474,360)"/>
<path d="M0 0 C1.8125 0.05078125 1.8125 0.05078125 4 0.3125 C4.721875 0.39113281 5.44375 0.46976562 6.1875 0.55078125 C7.0846875 0.77314453 7.0846875 0.77314453 8 1 C8.33 1.66 8.66 2.32 9 3 C8.01 3.33 7.02 3.66 6 4 C5.34 4.66 4.68 5.32 4 6 C3.34 6 2.68 6 2 6 C2 5.01 2 4.02 2 3 C1.01 2.34 0.02 1.68 -1 1 C-0.67 0.67 -0.34 0.34 0 0 Z " fill="#E3E3E3" transform="translate(337,342)"/>
<path d="M0 0 C2.64 0.33 5.28 0.66 8 1 C7.67 1.66 7.34 2.32 7 3 C6.34 3 5.68 3 5 3 C4.67 3.99 4.34 4.98 4 6 C3.34 6 2.68 6 2 6 C1.34 4.02 0.68 2.04 0 0 Z " fill="#E6E4E6" transform="translate(325,343)"/>
<path d="M0 0 C0.33 0 0.66 0 1 0 C1 4.95 1 9.9 1 15 C0.01 14.67 -0.98 14.34 -2 14 C-2.6875 11.9375 -2.6875 11.9375 -3 10 C-2.34 10 -1.68 10 -1 10 C-0.67 6.7 -0.34 3.4 0 0 Z " fill="#282627" transform="translate(359,373)"/>
<path d="M0 0 C0.66 0 1.32 0 2 0 C2.66 1.98 3.32 3.96 4 6 C3.01 6.495 3.01 6.495 2 7 C1.34 8.32 0.68 9.64 0 11 C0 7.37 0 3.74 0 0 Z " fill="#A4A3A5" transform="translate(295,376)"/>
<path d="M0 0 C0.33 0 0.66 0 1 0 C1.33 3.63 1.66 7.26 2 11 C1.01 11.33 0.02 11.66 -1 12 C-1.02687279 10.18757948 -1.04633715 8.37504767 -1.0625 6.5625 C-1.07410156 5.55316406 -1.08570313 4.54382813 -1.09765625 3.50390625 C-1 1 -1 1 0 0 Z " fill="#242322" transform="translate(312,360)"/>
<path d="M0 0 C2.0625 0.4375 2.0625 0.4375 4 1 C3.34 1 2.68 1 2 1 C1.34 4.63 0.68 8.26 0 12 C-0.33 12 -0.66 12 -1 12 C-1.02687279 10.18757948 -1.04633715 8.37504767 -1.0625 6.5625 C-1.07410156 5.55316406 -1.08570313 4.54382813 -1.09765625 3.50390625 C-1 1 -1 1 0 0 Z " fill="#0A0908" transform="translate(371,357)"/>
<path d="M0 0 C1.65 0 3.3 0 5 0 C4.67 2.64 4.34 5.28 4 8 C3.67 6.68 3.34 5.36 3 4 C2.01 4.33 1.02 4.66 0 5 C0 3.35 0 1.7 0 0 Z " fill="#C0BCBB" transform="translate(310,250)"/>
<path d="M0 0 C1.9451 2.91765 2.45276317 4.62537285 3 8 C2.34 8 1.68 8 1 8 C0.67 6.68 0.34 5.36 0 4 C-2.97 4 -5.94 4 -9 4 C-9 3.67 -9 3.34 -9 3 C-6.03 3 -3.06 3 0 3 C0 2.01 0 1.02 0 0 Z " fill="#C4C5C2" transform="translate(466,688)"/>
<path d="M0 0 C0.33 0.66 0.66 1.32 1 2 C1.66 2.33 2.32 2.66 3 3 C1.6875 5.9375 1.6875 5.9375 0 9 C-0.99 9.33 -1.98 9.66 -3 10 C-2.39009109 6.44219804 -1.4216319 3.3171411 0 0 Z " fill="#BFBFBE" transform="translate(459,679)"/>
<path d="M0 0 C0.99 0 1.98 0 3 0 C3.33 1.65 3.66 3.3 4 5 C3.01 4.67 2.02 4.34 1 4 C1 6.97 1 9.94 1 13 C0.67 13 0.34 13 0 13 C0 8.71 0 4.42 0 0 Z " fill="#323131" transform="translate(473,356)"/>
<path d="M0 0 C0.99 0.33 1.98 0.66 3 1 C3.33 2.98 3.66 4.96 4 7 C3.01 6.67 2.02 6.34 1 6 C1 5.34 1 4.68 1 4 C-0.32 3.67 -1.64 3.34 -3 3 C-2.01 3 -1.02 3 0 3 C0 2.01 0 1.02 0 0 Z " fill="#282829" transform="translate(501,356)"/>
<path d="M0 0 C1.32 0.66 2.64 1.32 4 2 C2.68 4.31 1.36 6.62 0 9 C-0.33 9 -0.66 9 -1 9 C-0.67 6.03 -0.34 3.06 0 0 Z " fill="#DFE0DE" transform="translate(266,283)"/>
<path d="M0 0 C0.33 0 0.66 0 1 0 C1 1.98 1 3.96 1 6 C3.31 6 5.62 6 8 6 C7.34 7.98 6.68 9.96 6 12 C5.67 12 5.34 12 5 12 C5 10.35 5 8.7 5 7 C3.35 7 1.7 7 0 7 C0 4.69 0 2.38 0 0 Z " fill="#A4A2A2" transform="translate(376,252)"/>
<path d="M0 0 C0.33 0 0.66 0 1 0 C1.33 4.29 1.66 8.58 2 13 C1.01 12.67 0.02 12.34 -1 12 C-0.67 8.04 -0.34 4.08 0 0 Z " fill="#B8B7B6" transform="translate(173,242)"/>
<path d="M0 0 C0.33 0.99 0.66 1.98 1 3 C1.66 3.33 2.32 3.66 3 4 C2.34 5.32 1.68 6.64 1 8 C1.99 8.33 2.98 8.66 4 9 C3.01 10.485 3.01 10.485 2 12 C1.34 12 0.68 12 0 12 C0 8.04 0 4.08 0 0 Z " fill="#EEEEEE" transform="translate(372,227)"/>
<path d="M0 0 C0.66 0.66 1.32 1.32 2 2 C1.67 2.99 1.34 3.98 1 5 C-1.64 4.67 -4.28 4.34 -7 4 C-7 3.01 -7 2.02 -7 1 C-3.625 0.375 -3.625 0.375 0 0 Z " fill="#C9C8C7" transform="translate(338,684)"/>
<path d="M0 0 C-2 2 -2 2 -4.53125 2.265625 C-5.5109375 2.26046875 -6.490625 2.2553125 -7.5 2.25 C-8.4796875 2.25515625 -9.459375 2.2603125 -10.46875 2.265625 C-13 2 -13 2 -15 0 C-9.62374766 -0.84888195 -5.34629602 -1.0024305 0 0 Z " fill="#EDEBEC" transform="translate(419,347)"/>
<path d="M0 0 C0.66 0.33 1.32 0.66 2 1 C1.0409375 1.7734375 1.0409375 1.7734375 0.0625 2.5625 C-2.55791681 5.65935623 -2.69389817 8.02067623 -3 12 C-3.33 12 -3.66 12 -4 12 C-4 8.7 -4 5.4 -4 2 C-2.68 1.34 -1.36 0.68 0 0 Z " fill="#8B8A8C" transform="translate(499,306)"/>
<path d="M0 0 C2.61627165 2.61627165 2.77669287 4.35265021 3 8 C2.01 8.99 1.02 9.98 0 11 C0 7.37 0 3.74 0 0 Z " fill="#C6C3C3" transform="translate(476,368)"/>
<path d="M0 0 C1.125 1.75 1.125 1.75 2 4 C1.125 6.25 1.125 6.25 0 8 C-0.99 8 -1.98 8 -3 8 C-2.37240135 5.07120629 -1.41377341 2.63904371 0 0 Z " fill="#D8D8D7" transform="translate(359,270)"/>
<path d="M0 0 C-0.33 0.99 -0.66 1.98 -1 3 C-3.375 3.1875 -3.375 3.1875 -6 3 C-6.66 2.01 -7.32 1.02 -8 0 C-5.13822943 -1.43088528 -3.06624227 -0.59991697 0 0 Z " fill="#DEDEDD" transform="translate(503,380)"/>
<path d="M0 0 C0.99 0.33 1.98 0.66 3 1 C3.33 2.98 3.66 4.96 4 7 C2.68 6.67 1.36 6.34 0 6 C0 4.02 0 2.04 0 0 Z " fill="#242424" transform="translate(348,356)"/>
<path d="M0 0 C0.66 0.33 1.32 0.66 2 1 C1.67 2.65 1.34 4.3 1 6 C-1.64 6 -4.28 6 -7 6 C-7 5.67 -7 5.34 -7 5 C-5.02 5 -3.04 5 -1 5 C-0.67 3.35 -0.34 1.7 0 0 Z " fill="#C9C9CA" transform="translate(461,329)"/>
<path d="M0 0 C3 3.625 3 3.625 3 7 C2.01 7 1.02 7 0 7 C-0.66 5.35 -1.32 3.7 -2 2 C-1.34 2 -0.68 2 0 2 C0 1.34 0 0.68 0 0 Z " fill="#2A2A2A" transform="translate(302,381)"/>
<path d="M0 0 C1.98 0 3.96 0 6 0 C6 0.99 6 1.98 6 3 C4.02 3 2.04 3 0 3 C0 2.01 0 1.02 0 0 Z " fill="#110F0C" transform="translate(516,370)"/>
<path d="M0 0 C1.32 0.33 2.64 0.66 4 1 C2.35 2.98 0.7 4.96 -1 7 C-1.66 6.01 -2.32 5.02 -3 4 C-2.01 2.68 -1.02 1.36 0 0 Z " fill="#D4D8D8" transform="translate(217,158)"/>
<path d="M0 0 C0.66 0.99 1.32 1.98 2 3 C-1.78187881 4.83691257 -3.94568308 5.15837626 -8 4 C-8 3.67 -8 3.34 -8 3 C-6.865625 2.690625 -5.73125 2.38125 -4.5625 2.0625 C-1.21224901 1.37075469 -1.21224901 1.37075469 0 0 Z " fill="#C3C4C3" transform="translate(314,691)"/>
<path d="M0 0 C2.5654594 2.5654594 2.54046087 4.47686668 3 8 C2.01 8.33 1.02 8.66 0 9 C0 6.03 0 3.06 0 0 Z " fill="#C1C0C0" transform="translate(350,367)"/>
<path d="M0 0 C2.64465038 3.1254959 3.84414715 6.08788267 5 10 C0.125 5.375 0.125 5.375 -1 2 C-0.67 1.34 -0.34 0.68 0 0 Z " fill="#363637" transform="translate(275,197)"/>
<path d="M0 0 C2.35953094 2.35953094 2.49141413 3.77895617 3 7 C2.01 7.33 1.02 7.66 0 8 C-0.79953138 4.71303767 -1.09658936 3.28976808 0 0 Z " fill="#363433" transform="translate(352,364)"/>
<path d="M0 0 C0.66 0 1.32 0 2 0 C2 2.64 2 5.28 2 8 C1.01 7.34 0.02 6.68 -1 6 C-0.67 4.02 -0.34 2.04 0 0 Z " fill="#BBB9B9" transform="translate(428,251)"/>
<path d="M0 0 C0.66 0 1.32 0 2 0 C2 3.63 2 7.26 2 11 C1.34 11 0.68 11 0 11 C-1.125 3.375 -1.125 3.375 0 0 Z " fill="#AFAEAF" transform="translate(204,194)"/>
<path d="M0 0 C0.66 0 1.32 0 2 0 C2 3.63 2 7.26 2 11 C1.67 11 1.34 11 1 11 C-1.125 3.375 -1.125 3.375 0 0 Z " fill="#C3C4C7" transform="translate(204,183)"/>
<path d="M0 0 C0.99 0.33 1.98 0.66 3 1 C3.33 2.65 3.66 4.3 4 6 C2.68 5.67 1.36 5.34 0 5 C0 3.35 0 1.7 0 0 Z " fill="#D2CECE" transform="translate(208,166)"/>
</svg>
